<?xml version="1.0" encoding="UTF-8" standalone="no"?>
<!DOCTYPE svg PUBLIC "-//W3C//DTD SVG 1.1//EN"
 "http://www.w3.org/Graphics/SVG/1.1/DTD/svg11.dtd">
<!-- Generated by graphviz version 2.43.0 (0)
 -->
<!-- Title: mini_soc_block_diagram Pages: 1 -->
<svg width="1546pt" height="887pt"
 viewBox="0.00 0.00 1546.00 887.48" xmlns="http://www.w3.org/2000/svg" xmlns:xlink="http://www.w3.org/1999/xlink">
<g id="graph0" class="graph" transform="scale(1 1) rotate(0) translate(4 883.48)">
<title>mini_soc_block_diagram</title>
<text text-anchor="middle" x="132" y="-861.08" font-family="Arial" font-size="18.00">retroSoC Mini SoC Architecture</text>
<g id="clust1" class="cluster">
<title>cluster_asic</title>
<path fill="transparent" stroke="#111827" d="M160,-85C160,-85 1518,-85 1518,-85 1524,-85 1530,-91 1530,-97 1530,-97 1530,-763.48 1530,-763.48 1530,-769.48 1524,-775.48 1518,-775.48 1518,-775.48 160,-775.48 160,-775.48 154,-775.48 148,-769.48 148,-763.48 148,-763.48 148,-97 148,-97 148,-91 154,-85 160,-85"/>
<text text-anchor="middle" x="196.5" y="-760.28" font-family="Arial" font-size="14.00" fill="#111827">retrosoc_asic</text>
</g>
<g id="clust2" class="cluster">
<title>cluster_soc</title>
<path fill="transparent" stroke="#94a3b8" stroke-dasharray="5,2" d="M390,-103C390,-103 1500,-103 1500,-103 1506,-103 1512,-109 1512,-115 1512,-115 1512,-720.48 1512,-720.48 1512,-726.48 1506,-732.48 1500,-732.48 1500,-732.48 390,-732.48 390,-732.48 384,-732.48 378,-726.48 378,-720.48 378,-720.48 378,-115 378,-115 378,-109 384,-103 390,-103"/>
<text text-anchor="middle" x="407.5" y="-718.88" font-family="Arial" font-size="12.00" fill="#334155">retrosoc</text>
</g>
<!-- ext_clock -->
<g id="node1" class="node">
<title>ext_clock</title>
<path fill="#f3f4f6" stroke="#4b5563" stroke-width="1.1" d="M118,-669.98C118,-669.98 12,-669.98 12,-669.98 6,-669.98 0,-663.98 0,-657.98 0,-657.98 0,-645.98 0,-645.98 0,-639.98 6,-633.98 12,-633.98 12,-633.98 118,-633.98 118,-633.98 124,-633.98 130,-639.98 130,-645.98 130,-645.98 130,-657.98 130,-657.98 130,-663.98 124,-669.98 118,-669.98"/>
<text text-anchor="middle" x="65" y="-654.98" font-family="Arial" font-size="10.00" fill="#111827">External clocks and reset</text>
<text text-anchor="middle" x="65" y="-643.98" font-family="Arial" font-size="10.00" fill="#111827">ext_clk, aud_clk, reset</text>
</g>
<!-- rcu -->
<g id="node4" class="node">
<title>rcu</title>
<path fill="#ede9fe" stroke="#4b5563" stroke-width="1.1" d="M350,-574.48C350,-574.48 178,-574.48 178,-574.48 172,-574.48 166,-568.48 166,-562.48 166,-562.48 166,-541.48 166,-541.48 166,-535.48 172,-529.48 178,-529.48 178,-529.48 350,-529.48 350,-529.48 356,-529.48 362,-535.48 362,-541.48 362,-541.48 362,-562.48 362,-562.48 362,-568.48 356,-574.48 350,-574.48"/>
<text text-anchor="middle" x="264" y="-560.48" font-family="Arial" font-size="10.00" fill="#111827">RCU</text>
<text text-anchor="middle" x="264" y="-549.48" font-family="Arial" font-size="10.00" fill="#111827">clock buffering and reset synchronization</text>
<text text-anchor="middle" x="264" y="-538.48" font-family="Arial" font-size="10.00" fill="#111827">PLL request/acknowledgment CDC</text>
</g>
<!-- ext_clock&#45;&gt;rcu -->
<g id="edge1" class="edge">
<title>ext_clock&#45;&gt;rcu</title>
<path fill="none" stroke="#4b5563" stroke-width="1.2" d="M99.66,-633.91C131.11,-618.43 177.87,-595.4 213.48,-577.87"/>
<polygon fill="#4b5563" stroke="#4b5563" stroke-width="1.2" points="214.79,-579.95 219.99,-574.66 212.63,-575.55 214.79,-579.95"/>
<text text-anchor="middle" x="191.5" y="-600.08" font-family="Arial" font-size="8.00" fill="#374151">clock / reset</text>
</g>
<!-- ext_io -->
<g id="node2" class="node">
<title>ext_io</title>
<path fill="#f3f4f6" stroke="#4b5563" stroke-width="1.1" d="M1257,-45C1257,-45 1065,-45 1065,-45 1059,-45 1053,-39 1053,-33 1053,-33 1053,-12 1053,-12 1053,-6 1059,0 1065,0 1065,0 1257,0 1257,0 1263,0 1269,-6 1269,-12 1269,-12 1269,-33 1269,-33 1269,-39 1263,-45 1257,-45"/>
<text text-anchor="middle" x="1161" y="-31" font-family="Arial" font-size="10.00" fill="#111827">External I/O and memory</text>
<text text-anchor="middle" x="1161" y="-20" font-family="Arial" font-size="10.00" fill="#111827">GPIO, UART0, XPI Flash, SDRAM, PSRAM</text>
<text text-anchor="middle" x="1161" y="-9" font-family="Arial" font-size="10.00" fill="#111827">SD card, I2C, I2S, DVP and WS2812</text>
</g>
<!-- ext_jtag -->
<g id="node3" class="node">
<title>ext_jtag</title>
<path fill="#f3f4f6" stroke="#4b5563" stroke-width="1.1" d="M749.5,-851.48C749.5,-851.48 618.5,-851.48 618.5,-851.48 612.5,-851.48 606.5,-845.48 606.5,-839.48 606.5,-839.48 606.5,-827.48 606.5,-827.48 606.5,-821.48 612.5,-815.48 618.5,-815.48 618.5,-815.48 749.5,-815.48 749.5,-815.48 755.5,-815.48 761.5,-821.48 761.5,-827.48 761.5,-827.48 761.5,-839.48 761.5,-839.48 761.5,-845.48 755.5,-851.48 749.5,-851.48"/>
<text text-anchor="middle" x="684" y="-836.48" font-family="Arial" font-size="10.00" fill="#111827">Management JTAG</text>
<text text-anchor="middle" x="684" y="-825.48" font-family="Arial" font-size="10.00" fill="#111827">TCK, TMS, TDI, TRST_n, TDO</text>
</g>
<!-- jtag_dtm -->
<g id="node6" class="node">
<title>jtag_dtm</title>
<path fill="#e5e7eb" stroke="#4b5563" stroke-width="1.1" d="M759,-669.98C759,-669.98 609,-669.98 609,-669.98 603,-669.98 597,-663.98 597,-657.98 597,-657.98 597,-645.98 597,-645.98 597,-639.98 603,-633.98 609,-633.98 609,-633.98 759,-633.98 759,-633.98 765,-633.98 771,-639.98 771,-645.98 771,-645.98 771,-657.98 771,-657.98 771,-663.98 765,-669.98 759,-669.98"/>
<text text-anchor="middle" x="684" y="-654.98" font-family="Arial" font-size="10.00" fill="#111827">Hazard3 JTAG DTM</text>
<text text-anchor="middle" x="684" y="-643.98" font-family="Arial" font-size="10.00" fill="#111827">10 MHz asynchronous TCK domain</text>
</g>
<!-- ext_jtag&#45;&gt;jtag_dtm -->
<g id="edge2" class="edge">
<title>ext_jtag&#45;&gt;jtag_dtm</title>
<path fill="none" stroke="#4b5563" stroke-width="1.2" d="M684,-815.27C684,-783.24 684,-714.39 684,-677.51"/>
<polygon fill="#4b5563" stroke="#4b5563" stroke-width="1.2" points="686.45,-677.14 684,-670.14 681.55,-677.14 686.45,-677.14"/>
<text text-anchor="middle" x="704" y="-786.08" font-family="Arial" font-size="8.00" fill="#374151">JTAG pads</text>
</g>
<!-- fabric -->
<g id="node11" class="node">
<title>fabric</title>
<path fill="#dcecf8" stroke="#4b5563" stroke-width="1.1" d="M810.66,-442.31C810.66,-442.31 742.98,-470.16 742.98,-470.16 737.43,-472.45 725.88,-474.73 719.88,-474.73 719.88,-474.73 564.12,-474.73 564.12,-474.73 558.12,-474.73 546.57,-472.45 541.02,-470.16 541.02,-470.16 473.34,-442.31 473.34,-442.31 467.79,-440.03 467.79,-435.46 473.34,-433.18 473.34,-433.18 541.02,-405.32 541.02,-405.32 546.57,-403.04 558.12,-400.76 564.12,-400.76 564.12,-400.76 719.88,-400.76 719.88,-400.76 725.88,-400.76 737.43,-403.04 742.98,-405.32 742.98,-405.32 810.66,-433.18 810.66,-433.18 816.21,-435.46 816.21,-440.03 810.66,-442.31"/>
<text text-anchor="middle" x="642" y="-446.24" font-family="Arial" font-size="10.00" fill="#111827">RIB fabric</text>
<text text-anchor="middle" x="642" y="-435.24" font-family="Arial" font-size="10.00" fill="#111827">3&#45;master round&#45;robin arbitration</text>
<text text-anchor="middle" x="642" y="-424.24" font-family="Arial" font-size="10.00" fill="#111827">INCR1 / INCR4, access policy, fault reporting</text>
</g>
<!-- rcu&#45;&gt;fabric -->
<g id="edge3" class="edge">
<title>rcu&#45;&gt;fabric</title>
<path fill="none" stroke="#4b5563" stroke-width="1.2" stroke-dasharray="5,2" d="M336.43,-529.48C391.76,-513.05 468.96,-490.13 531.91,-471.43"/>
<polygon fill="#4b5563" stroke="#4b5563" stroke-width="1.2" points="532.72,-473.75 538.74,-469.41 531.33,-469.05 532.72,-473.75"/>
<text text-anchor="middle" x="476" y="-500.08" font-family="Arial" font-size="8.00" fill="#374151">system clock / reset</text>
</g>
<!-- mgmt_core -->
<g id="node5" class="node">
<title>mgmt_core</title>
<path fill="#ddf2e3" stroke="#4b5563" stroke-width="1.1" d="M964,-674.48C964,-674.48 810,-674.48 810,-674.48 804,-674.48 798,-668.48 798,-662.48 798,-662.48 798,-641.48 798,-641.48 798,-635.48 804,-629.48 810,-629.48 810,-629.48 964,-629.48 964,-629.48 970,-629.48 976,-635.48 976,-641.48 976,-641.48 976,-662.48 976,-662.48 976,-668.48 970,-674.48 964,-674.48"/>
<text text-anchor="middle" x="887" y="-660.48" font-family="Arial" font-size="10.00" fill="#111827">Management core</text>
<text text-anchor="middle" x="887" y="-649.48" font-family="Arial" font-size="10.00" fill="#111827">Fixed Hazard3, branch predictor</text>
<text text-anchor="middle" x="887" y="-638.48" font-family="Arial" font-size="10.00" fill="#111827">JTAG Debug Module always present</text>
</g>
<!-- mgmt_adapter -->
<g id="node8" class="node">
<title>mgmt_adapter</title>
<path fill="#e5e7eb" stroke="#4b5563" stroke-width="1.1" d="M907.5,-569.98C907.5,-569.98 866.5,-569.98 866.5,-569.98 860.5,-569.98 854.5,-563.98 854.5,-557.98 854.5,-557.98 854.5,-545.98 854.5,-545.98 854.5,-539.98 860.5,-533.98 866.5,-533.98 866.5,-533.98 907.5,-533.98 907.5,-533.98 913.5,-533.98 919.5,-539.98 919.5,-545.98 919.5,-545.98 919.5,-557.98 919.5,-557.98 919.5,-563.98 913.5,-569.98 907.5,-569.98"/>
<text text-anchor="middle" x="887" y="-549.48" font-family="Arial" font-size="10.00" fill="#111827">RIBP2RIB</text>
</g>
<!-- mgmt_core&#45;&gt;mgmt_adapter -->
<g id="edge8" class="edge">
<title>mgmt_core&#45;&gt;mgmt_adapter</title>
<path fill="none" stroke="#4b5563" stroke-width="1.2" d="M887,-629.24C887,-613.92 887,-593.4 887,-577.51"/>
<polygon fill="#4b5563" stroke="#4b5563" stroke-width="1.2" points="889.45,-577.12 887,-570.12 884.55,-577.12 889.45,-577.12"/>
<text text-anchor="middle" x="896.5" y="-600.08" font-family="Arial" font-size="8.00" fill="#374151">RIBP</text>
</g>
<!-- debug_module -->
<g id="node7" class="node">
<title>debug_module</title>
<path fill="#fce7f3" stroke="#4b5563" stroke-width="1.1" d="M1254.5,-674.48C1254.5,-674.48 1133.5,-674.48 1133.5,-674.48 1127.5,-674.48 1121.5,-668.48 1121.5,-662.48 1121.5,-662.48 1121.5,-641.48 1121.5,-641.48 1121.5,-635.48 1127.5,-629.48 1133.5,-629.48 1133.5,-629.48 1254.5,-629.48 1254.5,-629.48 1260.5,-629.48 1266.5,-635.48 1266.5,-641.48 1266.5,-641.48 1266.5,-662.48 1266.5,-662.48 1266.5,-668.48 1260.5,-674.48 1254.5,-674.48"/>
<text text-anchor="middle" x="1194" y="-660.48" font-family="Arial" font-size="10.00" fill="#111827">Hazard3 Debug Module</text>
<text text-anchor="middle" x="1194" y="-649.48" font-family="Arial" font-size="10.00" fill="#111827">abstract commands, no SBA</text>
<text text-anchor="middle" x="1194" y="-638.48" font-family="Arial" font-size="10.00" fill="#111827">management&#45;hart&#45;only reset</text>
</g>
<!-- jtag_dtm&#45;&gt;debug_module -->
<g id="edge4" class="edge">
<title>jtag_dtm&#45;&gt;debug_module</title>
<path fill="none" stroke="#4b5563" stroke-width="1.2" d="M702.06,-670.13C731.11,-699.33 785,-753.48 785,-753.48 785,-753.48 990,-753.48 990,-753.48 990,-753.48 1081.81,-707.8 1142.25,-677.73"/>
<polygon fill="#4b5563" stroke="#4b5563" stroke-width="1.2" points="1143.55,-679.82 1148.73,-674.51 1141.37,-675.44 1143.55,-679.82"/>
<text text-anchor="middle" x="946" y="-786.08" font-family="Arial" font-size="8.00" fill="#374151">DMI, asynchronous CDC</text>
</g>
<!-- debug_module&#45;&gt;mgmt_core -->
<g id="edge5" class="edge">
<title>debug_module&#45;&gt;mgmt_core</title>
<path fill="none" stroke="#4b5563" stroke-width="1.2" d="M1121.11,-651.98C1079.89,-651.98 1027.84,-651.98 983.29,-651.98"/>
<polygon fill="#4b5563" stroke="#4b5563" stroke-width="1.2" points="983.21,-649.53 976.21,-651.98 983.21,-654.43 983.21,-649.53"/>
<text text-anchor="middle" x="1048.75" y="-657.58" font-family="Arial" font-size="8.00" fill="#374151">halt, resume, abstract commands</text>
</g>
<!-- debug_module&#45;&gt;mgmt_adapter -->
<g id="edge6" class="edge">
<title>debug_module&#45;&gt;mgmt_adapter</title>
<path fill="none" stroke="#4b5563" stroke-width="1.2" stroke-dasharray="5,2" d="M1126.63,-629.48C1065.43,-609.94 977.24,-581.79 926.67,-565.65"/>
<polygon fill="#4b5563" stroke="#4b5563" stroke-width="1.2" points="927.21,-563.25 919.79,-563.45 925.72,-567.92 927.21,-563.25"/>
<text text-anchor="middle" x="1087" y="-600.08" font-family="Arial" font-size="8.00" fill="#374151">reset after bridge idle</text>
</g>
<!-- timers -->
<g id="node18" class="node">
<title>timers</title>
<path fill="#f9e1e7" stroke="#4b5563" stroke-width="1.1" d="M1484.5,-255C1484.5,-255 1303.5,-255 1303.5,-255 1297.5,-255 1291.5,-249 1291.5,-243 1291.5,-243 1291.5,-222 1291.5,-222 1291.5,-216 1297.5,-210 1303.5,-210 1303.5,-210 1484.5,-210 1484.5,-210 1490.5,-210 1496.5,-216 1496.5,-222 1496.5,-222 1496.5,-243 1496.5,-243 1496.5,-249 1490.5,-255 1484.5,-255"/>
<text text-anchor="middle" x="1394" y="-241" font-family="Arial" font-size="10.00" fill="#111827">General timers 0/1</text>
<text text-anchor="middle" x="1394" y="-230" font-family="Arial" font-size="10.00" fill="#111827">32&#45;bit counter, 16&#45;bit prescaler</text>
<text text-anchor="middle" x="1394" y="-219" font-family="Arial" font-size="10.00" fill="#111827">periodic / one&#45;shot, compare, debug freeze</text>
</g>
<!-- debug_module&#45;&gt;timers -->
<g id="edge7" class="edge">
<title>debug_module&#45;&gt;timers</title>
<path fill="none" stroke="#4b5563" stroke-width="1.2" stroke-dasharray="5,2" d="M1211.98,-629.24C1235.84,-600.36 1275,-552.98 1275,-552.98 1275,-552.98 1275,-552.98 1275,-327 1275,-327 1325.68,-287.18 1360.89,-259.51"/>
<polygon fill="#4b5563" stroke="#4b5563" stroke-width="1.2" points="1362.41,-261.44 1366.4,-255.19 1359.38,-257.58 1362.41,-261.44"/>
<text text-anchor="middle" x="1286" y="-435.84" font-family="Arial" font-size="8.00" fill="#374151">halted</text>
</g>
<!-- mgmt_adapter&#45;&gt;fabric -->
<g id="edge9" class="edge">
<title>mgmt_adapter&#45;&gt;fabric</title>
<path fill="none" stroke="#4b5563" stroke-width="1.2" d="M854.47,-536.08C821.96,-521.19 770.62,-497.67 726.55,-477.48"/>
<polygon fill="#4b5563" stroke="#4b5563" stroke-width="1.2" points="727.49,-475.21 720.11,-474.53 725.45,-479.67 727.49,-475.21"/>
<text text-anchor="middle" x="793" y="-500.08" font-family="Arial" font-size="8.00" fill="#374151">RIB</text>
</g>
<!-- user_core -->
<g id="node9" class="node">
<title>user_core</title>
<path fill="#ddf2e3" stroke="#4b5563" stroke-width="1.1" d="M680,-574.48C680,-574.48 604,-574.48 604,-574.48 598,-574.48 592,-568.48 592,-562.48 592,-562.48 592,-541.48 592,-541.48 592,-535.48 598,-529.48 604,-529.48 604,-529.48 680,-529.48 680,-529.48 686,-529.48 692,-535.48 692,-541.48 692,-541.48 692,-562.48 692,-562.48 692,-568.48 686,-574.48 680,-574.48"/>
<text text-anchor="middle" x="642" y="-560.48" font-family="Arial" font-size="10.00" fill="#111827">Selected user core</text>
<text text-anchor="middle" x="642" y="-549.48" font-family="Arial" font-size="10.00" fill="#111827">C0&#45;C5, one active</text>
<text text-anchor="middle" x="642" y="-538.48" font-family="Arial" font-size="10.00" fill="#111827">PicoRV32 at C5</text>
</g>
<!-- user_core&#45;&gt;fabric -->
<g id="edge10" class="edge">
<title>user_core&#45;&gt;fabric</title>
<path fill="none" stroke="#4b5563" stroke-width="1.2" d="M642,-529.34C642,-515.97 642,-498.34 642,-482.19"/>
<polygon fill="#4b5563" stroke="#4b5563" stroke-width="1.2" points="644.45,-481.89 642,-474.89 639.55,-481.89 644.45,-481.89"/>
<text text-anchor="middle" x="649" y="-500.08" font-family="Arial" font-size="8.00" fill="#374151">RIB</text>
</g>
<!-- dma -->
<g id="node10" class="node">
<title>dma</title>
<path fill="#ddf2e3" stroke="#4b5563" stroke-width="1.1" d="M1197,-569.98C1197,-569.98 1079,-569.98 1079,-569.98 1073,-569.98 1067,-563.98 1067,-557.98 1067,-557.98 1067,-545.98 1067,-545.98 1067,-539.98 1073,-533.98 1079,-533.98 1079,-533.98 1197,-533.98 1197,-533.98 1203,-533.98 1209,-539.98 1209,-545.98 1209,-545.98 1209,-557.98 1209,-557.98 1209,-563.98 1203,-569.98 1197,-569.98"/>
<text text-anchor="middle" x="1138" y="-554.98" font-family="Arial" font-size="10.00" fill="#111827">DMA</text>
<text text-anchor="middle" x="1138" y="-543.98" font-family="Arial" font-size="10.00" fill="#111827">RIB master and RIBP target</text>
</g>
<!-- dma&#45;&gt;fabric -->
<g id="edge11" class="edge">
<title>dma&#45;&gt;fabric</title>
<path fill="none" stroke="#4b5563" stroke-width="1.2" d="M1080.16,-533.98C1026.87,-518.32 956,-497.48 956,-497.48 956,-497.48 857.85,-479.12 771.3,-462.93"/>
<polygon fill="#4b5563" stroke="#4b5563" stroke-width="1.2" points="771.63,-460.5 764.3,-461.62 770.73,-465.32 771.63,-460.5"/>
<text text-anchor="middle" x="993" y="-500.08" font-family="Arial" font-size="8.00" fill="#374151">RIB</text>
</g>
<!-- ws2812 -->
<g id="node19" class="node">
<title>ws2812</title>
<path fill="#f9e1e7" stroke="#4b5563" stroke-width="1.1" d="M1253,-255C1253,-255 1119,-255 1119,-255 1113,-255 1107,-249 1107,-243 1107,-243 1107,-222 1107,-222 1107,-216 1113,-210 1119,-210 1119,-210 1253,-210 1253,-210 1259,-210 1265,-216 1265,-222 1265,-222 1265,-243 1265,-243 1265,-249 1259,-255 1253,-255"/>
<text text-anchor="middle" x="1186" y="-241" font-family="Arial" font-size="10.00" fill="#111827">WS2812 TX</text>
<text text-anchor="middle" x="1186" y="-230" font-family="Arial" font-size="10.00" fill="#111827">24&#45;bit MSB&#45;first serializer</text>
<text text-anchor="middle" x="1186" y="-219" font-family="Arial" font-size="10.00" fill="#111827">16&#45;word FIFO, IRQ17, DMA&#45;fed</text>
</g>
<!-- dma&#45;&gt;ws2812 -->
<g id="edge24" class="edge">
<title>dma&#45;&gt;ws2812</title>
<path fill="none" stroke="#4b5563" stroke-width="1.2" stroke-dasharray="5,2" d="M1145.49,-533.63C1155.22,-511.05 1171,-474.48 1171,-474.48 1171,-474.48 1180.23,-326.28 1184.21,-262.32"/>
<polygon fill="#4b5563" stroke="#4b5563" stroke-width="1.2" points="1186.65,-262.45 1184.64,-255.31 1181.76,-262.15 1186.65,-262.45"/>
<text text-anchor="middle" x="1204.5" y="-371.6" font-family="Arial" font-size="8.00" fill="#374151">TXDATA writes</text>
</g>
<!-- fault -->
<g id="node12" class="node">
<title>fault</title>
<path fill="#fce7f3" stroke="#4b5563" stroke-width="1.1" d="M1145.5,-455.74C1145.5,-455.74 1036.5,-455.74 1036.5,-455.74 1030.5,-455.74 1024.5,-449.74 1024.5,-443.74 1024.5,-443.74 1024.5,-431.74 1024.5,-431.74 1024.5,-425.74 1030.5,-419.74 1036.5,-419.74 1036.5,-419.74 1145.5,-419.74 1145.5,-419.74 1151.5,-419.74 1157.5,-425.74 1157.5,-431.74 1157.5,-431.74 1157.5,-443.74 1157.5,-443.74 1157.5,-449.74 1151.5,-455.74 1145.5,-455.74"/>
<text text-anchor="middle" x="1091" y="-440.74" font-family="Arial" font-size="10.00" fill="#111827">Error slave</text>
<text text-anchor="middle" x="1091" y="-429.74" font-family="Arial" font-size="10.00" fill="#111827">access and protocol faults</text>
</g>
<!-- fabric&#45;&gt;fault -->
<g id="edge12" class="edge">
<title>fabric&#45;&gt;fault</title>
<path fill="none" stroke="#4b5563" stroke-width="1.2" d="M764.45,-466.01C829.63,-481.05 896.5,-496.48 896.5,-496.48 896.5,-496.48 949.5,-496.48 949.5,-496.48 949.5,-496.48 1011,-474.48 1011,-474.48 1011,-474.48 1027.11,-467.08 1044.88,-458.93"/>
<polygon fill="#4b5563" stroke="#4b5563" stroke-width="1.2" points="764.71,-463.55 757.34,-464.36 763.61,-468.33 764.71,-463.55"/>
<polygon fill="#4b5563" stroke="#4b5563" stroke-width="1.2" points="1046.13,-461.05 1051.47,-455.9 1044.08,-456.59 1046.13,-461.05"/>
<text text-anchor="middle" x="923" y="-500.08" font-family="Arial" font-size="8.00" fill="#374151">invalid / denied</text>
</g>
<!-- sram -->
<g id="node13" class="node">
<title>sram</title>
<path fill="#fff3c9" stroke="#4b5563" stroke-width="1.1" d="M985,-455.74C985,-455.74 887,-455.74 887,-455.74 881,-455.74 875,-449.74 875,-443.74 875,-443.74 875,-431.74 875,-431.74 875,-425.74 881,-419.74 887,-419.74 887,-419.74 985,-419.74 985,-419.74 991,-419.74 997,-425.74 997,-431.74 997,-431.74 997,-443.74 997,-443.74 997,-449.74 991,-455.74 985,-455.74"/>
<text text-anchor="middle" x="936" y="-440.74" font-family="Arial" font-size="10.00" fill="#111827">On&#45;chip SRAM</text>
<text text-anchor="middle" x="936" y="-429.74" font-family="Arial" font-size="10.00" fill="#111827">optional RIB2RAM path</text>
</g>
<!-- fabric&#45;&gt;sram -->
<g id="edge13" class="edge">
<title>fabric&#45;&gt;sram</title>
<path fill="none" stroke="#4b5563" stroke-width="1.2" d="M821.91,-437.74C837.95,-437.74 853.44,-437.74 867.56,-437.74"/>
<polygon fill="#4b5563" stroke="#4b5563" stroke-width="1.2" points="867.81,-440.19 874.81,-437.74 867.81,-435.29 867.81,-440.19"/>
<text text-anchor="middle" x="848.31" y="-443.34" font-family="Arial" font-size="8.00" fill="#374151">RIB</text>
</g>
<!-- ribp_adapter -->
<g id="node14" class="node">
<title>ribp_adapter</title>
<path fill="#e5e7eb" stroke="#4b5563" stroke-width="1.1" d="M985.5,-346C985.5,-346 944.5,-346 944.5,-346 938.5,-346 932.5,-340 932.5,-334 932.5,-334 932.5,-322 932.5,-322 932.5,-316 938.5,-310 944.5,-310 944.5,-310 985.5,-310 985.5,-310 991.5,-310 997.5,-316 997.5,-322 997.5,-322 997.5,-334 997.5,-334 997.5,-340 991.5,-346 985.5,-346"/>
<text text-anchor="middle" x="965" y="-325.5" font-family="Arial" font-size="10.00" fill="#111827">RIB2RIBP</text>
</g>
<!-- fabric&#45;&gt;ribp_adapter -->
<g id="edge14" class="edge">
<title>fabric&#45;&gt;ribp_adapter</title>
<path fill="none" stroke="#4b5563" stroke-width="1.2" d="M740.23,-403.98C802.54,-383.19 879.79,-357.42 925.59,-342.15"/>
<polygon fill="#4b5563" stroke="#4b5563" stroke-width="1.2" points="926.52,-344.42 932.39,-339.88 924.97,-339.77 926.52,-344.42"/>
<text text-anchor="middle" x="848" y="-371.6" font-family="Arial" font-size="8.00" fill="#374151">RIB</text>
</g>
<!-- apb_adapter -->
<g id="node15" class="node">
<title>apb_adapter</title>
<path fill="#e5e7eb" stroke="#4b5563" stroke-width="1.1" d="M618,-346C618,-346 548,-346 548,-346 542,-346 536,-340 536,-334 536,-334 536,-322 536,-322 536,-316 542,-310 548,-310 548,-310 618,-310 618,-310 624,-310 630,-316 630,-322 630,-322 630,-334 630,-334 630,-340 624,-346 618,-346"/>
<text text-anchor="middle" x="583" y="-331" font-family="Arial" font-size="10.00" fill="#111827">RIB2APB</text>
<text text-anchor="middle" x="583" y="-320" font-family="Arial" font-size="10.00" fill="#111827">direct APB bridge</text>
</g>
<!-- fabric&#45;&gt;apb_adapter -->
<g id="edge15" class="edge">
<title>fabric&#45;&gt;apb_adapter</title>
<path fill="none" stroke="#4b5563" stroke-width="1.2" d="M622.35,-400.87C613.57,-384.83 603.48,-366.4 595.71,-352.22"/>
<polygon fill="#4b5563" stroke="#4b5563" stroke-width="1.2" points="597.83,-350.98 592.32,-346.02 593.53,-353.34 597.83,-350.98"/>
<text text-anchor="middle" x="615" y="-371.6" font-family="Arial" font-size="8.00" fill="#374151">RIB</text>
</g>
<!-- sysctrl -->
<g id="node16" class="node">
<title>sysctrl</title>
<path fill="#f9e1e7" stroke="#4b5563" stroke-width="1.1" d="M811.5,-255C811.5,-255 648.5,-255 648.5,-255 642.5,-255 636.5,-249 636.5,-243 636.5,-243 636.5,-222 636.5,-222 636.5,-216 642.5,-210 648.5,-210 648.5,-210 811.5,-210 811.5,-210 817.5,-210 823.5,-216 823.5,-222 823.5,-222 823.5,-243 823.5,-243 823.5,-249 817.5,-255 811.5,-255"/>
<text text-anchor="middle" x="730" y="-241" font-family="Arial" font-size="10.00" fill="#111827">SYSCTRL and CLINT</text>
<text text-anchor="middle" x="730" y="-230" font-family="Arial" font-size="10.00" fill="#111827">PLL, user&#45;core select/reset/bus enable</text>
<text text-anchor="middle" x="730" y="-219" font-family="Arial" font-size="10.00" fill="#111827">fault and performance control</text>
</g>
<!-- ribp_adapter&#45;&gt;sysctrl -->
<g id="edge16" class="edge">
<title>ribp_adapter&#45;&gt;sysctrl</title>
<path fill="none" stroke="#4b5563" stroke-width="1.2" d="M932.32,-314C895.78,-299.46 835.8,-275.6 790.62,-257.62"/>
<polygon fill="#4b5563" stroke="#4b5563" stroke-width="1.2" points="791.47,-255.32 784.06,-255.01 789.66,-259.87 791.47,-255.32"/>
<text text-anchor="middle" x="870.5" y="-280.6" font-family="Arial" font-size="8.00" fill="#374151">RIBP</text>
</g>
<!-- ribp_targets -->
<g id="node17" class="node">
<title>ribp_targets</title>
<path fill="#f9e1e7" stroke="#4b5563" stroke-width="1.1" d="M1067.5,-255C1067.5,-255 862.5,-255 862.5,-255 856.5,-255 850.5,-249 850.5,-243 850.5,-243 850.5,-222 850.5,-222 850.5,-216 856.5,-210 862.5,-210 862.5,-210 1067.5,-210 1067.5,-210 1073.5,-210 1079.5,-216 1079.5,-222 1079.5,-222 1079.5,-243 1079.5,-243 1079.5,-249 1073.5,-255 1067.5,-255"/>
<text text-anchor="middle" x="965" y="-241" font-family="Arial" font-size="10.00" fill="#111827">RIBP target wrapper</text>
<text text-anchor="middle" x="965" y="-230" font-family="Arial" font-size="10.00" fill="#111827">XPI/Flash, SDRAM, PSRAM, SPI&#45;SD and DVP</text>
<text text-anchor="middle" x="965" y="-219" font-family="Arial" font-size="10.00" fill="#111827">GPIO, UART0, I2C and I2S</text>
</g>
<!-- ribp_adapter&#45;&gt;ribp_targets -->
<g id="edge17" class="edge">
<title>ribp_adapter&#45;&gt;ribp_targets</title>
<path fill="none" stroke="#4b5563" stroke-width="1.2" d="M965,-309.85C965,-296.62 965,-278.02 965,-262.49"/>
<polygon fill="#4b5563" stroke="#4b5563" stroke-width="1.2" points="967.45,-262.15 965,-255.15 962.55,-262.15 967.45,-262.15"/>
<text text-anchor="middle" x="974.5" y="-280.6" font-family="Arial" font-size="8.00" fill="#374151">RIBP</text>
</g>
<!-- ribp_adapter&#45;&gt;timers -->
<g id="edge18" class="edge">
<title>ribp_adapter&#45;&gt;timers</title>
<path fill="none" stroke="#4b5563" stroke-width="1.2" d="M997.6,-319.9C1058.64,-306.59 1192.62,-277.39 1287.89,-256.63"/>
<polygon fill="#4b5563" stroke="#4b5563" stroke-width="1.2" points="1288.65,-258.97 1294.97,-255.08 1287.61,-254.18 1288.65,-258.97"/>
<text text-anchor="middle" x="1188.5" y="-280.6" font-family="Arial" font-size="8.00" fill="#374151">RIBP</text>
</g>
<!-- ribp_adapter&#45;&gt;ws2812 -->
<g id="edge19" class="edge">
<title>ribp_adapter&#45;&gt;ws2812</title>
<path fill="none" stroke="#4b5563" stroke-width="1.2" d="M997.61,-313.2C1031.91,-298.69 1086.6,-275.55 1128.23,-257.94"/>
<polygon fill="#4b5563" stroke="#4b5563" stroke-width="1.2" points="1129.31,-260.15 1134.8,-255.16 1127.4,-255.63 1129.31,-260.15"/>
<text text-anchor="middle" x="1084.5" y="-280.6" font-family="Arial" font-size="8.00" fill="#374151">RIBP</text>
</g>
<!-- apb_targets -->
<g id="node20" class="node">
<title>apb_targets</title>
<path fill="#e6f4ea" stroke="#4b5563" stroke-width="1.1" d="M597.5,-255C597.5,-255 406.5,-255 406.5,-255 400.5,-255 394.5,-249 394.5,-243 394.5,-243 394.5,-222 394.5,-222 394.5,-216 400.5,-210 406.5,-210 406.5,-210 597.5,-210 597.5,-210 603.5,-210 609.5,-216 609.5,-222 609.5,-222 609.5,-243 609.5,-243 609.5,-249 603.5,-255 597.5,-255"/>
<text text-anchor="middle" x="502" y="-241" font-family="Arial" font-size="10.00" fill="#111827">APB target wrapper</text>
<text text-anchor="middle" x="502" y="-230" font-family="Arial" font-size="10.00" fill="#111827">Archinfo, RNG, UART1, PWM, PS/2, RTC</text>
<text text-anchor="middle" x="502" y="-219" font-family="Arial" font-size="10.00" fill="#111827">watchdog, CRC, advanced timer and user IP</text>
</g>
<!-- apb_adapter&#45;&gt;apb_targets -->
<g id="edge20" class="edge">
<title>apb_adapter&#45;&gt;apb_targets</title>
<path fill="none" stroke="#4b5563" stroke-width="1.2" d="M568.14,-309.85C556.27,-296.14 539.39,-276.66 525.66,-260.81"/>
<polygon fill="#4b5563" stroke="#4b5563" stroke-width="1.2" points="527.19,-258.84 520.75,-255.15 523.49,-262.04 527.19,-258.84"/>
<text text-anchor="middle" x="555" y="-280.6" font-family="Arial" font-size="8.00" fill="#374151">APB</text>
</g>
<!-- ribp_targets&#45;&gt;ext_io -->
<g id="edge27" class="edge">
<title>ribp_targets&#45;&gt;ext_io</title>
<path fill="none" stroke="#4b5563" stroke-width="1.2" d="M1086.9,-211.18C1091.39,-210.44 1094,-210 1094,-210 1094,-210 1342,-187 1342,-187 1342,-187 1342,-178 1342,-178 1342,-178 1320,-85 1320,-85 1320,-85 1267.94,-64.86 1223.4,-47.64"/>
<polygon fill="#4b5563" stroke="#4b5563" stroke-width="1.2" points="1086.2,-208.82 1079.7,-212.38 1087.01,-213.65 1086.2,-208.82"/>
<polygon fill="#4b5563" stroke="#4b5563" stroke-width="1.2" points="1224.02,-45.25 1216.61,-45.01 1222.26,-49.82 1224.02,-45.25"/>
<text text-anchor="middle" x="1366" y="-135.1" font-family="Arial" font-size="8.00" fill="#374151">device interfaces</text>
</g>
<!-- gpio_bridge -->
<g id="node21" class="node">
<title>gpio_bridge</title>
<path fill="#e5e7eb" stroke="#4b5563" stroke-width="1.1" d="M1037,-155C1037,-155 889,-155 889,-155 883,-155 877,-149 877,-143 877,-143 877,-131 877,-131 877,-125 883,-119 889,-119 889,-119 1037,-119 1037,-119 1043,-119 1049,-125 1049,-131 1049,-131 1049,-143 1049,-143 1049,-149 1043,-155 1037,-155"/>
<text text-anchor="middle" x="963" y="-140" font-family="Arial" font-size="10.00" fill="#111827">GPIO pad bridge</text>
<text text-anchor="middle" x="963" y="-129" font-family="Arial" font-size="10.00" fill="#111827">software, alternate and user modes</text>
</g>
<!-- ribp_targets&#45;&gt;gpio_bridge -->
<g id="edge21" class="edge">
<title>ribp_targets&#45;&gt;gpio_bridge</title>
<path fill="none" stroke="#4b5563" stroke-width="1.2" d="M964.54,-209.81C964.23,-195.66 963.84,-177.17 963.52,-162.49"/>
<polygon fill="#4b5563" stroke="#4b5563" stroke-width="1.2" points="965.97,-162.15 963.37,-155.2 961.07,-162.25 965.97,-162.15"/>
<text text-anchor="middle" x="1008" y="-180.6" font-family="Arial" font-size="8.00" fill="#374151">GPIO alternate functions</text>
</g>
<!-- irq -->
<g id="node22" class="node">
<title>irq</title>
<path fill="#fce7f3" stroke="#4b5563" stroke-width="1.1" d="M1294,-155C1294,-155 1088,-155 1088,-155 1082,-155 1076,-149 1076,-143 1076,-143 1076,-131 1076,-131 1076,-125 1082,-119 1088,-119 1088,-119 1294,-119 1294,-119 1300,-119 1306,-125 1306,-131 1306,-131 1306,-143 1306,-143 1306,-149 1300,-155 1294,-155"/>
<text text-anchor="middle" x="1191" y="-140" font-family="Arial" font-size="10.00" fill="#111827">Interrupt aggregation</text>
<text text-anchor="middle" x="1191" y="-129" font-family="Arial" font-size="10.00" fill="#111827">RIBP and APB target IRQs to management core</text>
</g>
<!-- timers&#45;&gt;irq -->
<g id="edge22" class="edge">
<title>timers&#45;&gt;irq</title>
<path fill="none" stroke="#4b5563" stroke-width="1.2" d="M1347.17,-209.93C1313.25,-194.31 1267.72,-173.34 1234.58,-158.07"/>
<polygon fill="#4b5563" stroke="#4b5563" stroke-width="1.2" points="1235.5,-155.8 1228.12,-155.1 1233.45,-160.25 1235.5,-155.8"/>
<text text-anchor="middle" x="1314.5" y="-180.6" font-family="Arial" font-size="8.00" fill="#374151">IRQ3 / IRQ4</text>
</g>
<!-- ws2812&#45;&gt;gpio_bridge -->
<g id="edge23" class="edge">
<title>ws2812&#45;&gt;gpio_bridge</title>
<path fill="none" stroke="#4b5563" stroke-width="1.2" d="M1134.56,-209.93C1097.14,-194.24 1046.86,-173.16 1010.42,-157.88"/>
<polygon fill="#4b5563" stroke="#4b5563" stroke-width="1.2" points="1011.18,-155.54 1003.78,-155.1 1009.29,-160.06 1011.18,-155.54"/>
<text text-anchor="middle" x="1096.5" y="-180.6" font-family="Arial" font-size="8.00" fill="#374151">GPIO2 ALT1</text>
</g>
<!-- ws2812&#45;&gt;irq -->
<g id="edge25" class="edge">
<title>ws2812&#45;&gt;irq</title>
<path fill="none" stroke="#4b5563" stroke-width="1.2" d="M1187.16,-209.81C1187.92,-195.66 1188.91,-177.17 1189.69,-162.49"/>
<polygon fill="#4b5563" stroke="#4b5563" stroke-width="1.2" points="1192.15,-162.32 1190.08,-155.2 1187.26,-162.06 1192.15,-162.32"/>
<text text-anchor="middle" x="1200" y="-180.6" font-family="Arial" font-size="8.00" fill="#374151">IRQ17</text>
</g>
<!-- apb_targets&#45;&gt;gpio_bridge -->
<g id="edge26" class="edge">
<title>apb_targets&#45;&gt;gpio_bridge</title>
<path fill="none" stroke="#4b5563" stroke-width="1.2" d="M608.05,-209.99C687.77,-193.82 795.84,-171.9 871.72,-156.51"/>
<polygon fill="#4b5563" stroke="#4b5563" stroke-width="1.2" points="872.59,-158.84 878.97,-155.04 871.62,-154.03 872.59,-158.84"/>
<text text-anchor="middle" x="778" y="-180.6" font-family="Arial" font-size="8.00" fill="#374151">user_gpio</text>
</g>
<!-- gpio_bridge&#45;&gt;ext_io -->
<g id="edge28" class="edge">
<title>gpio_bridge&#45;&gt;ext_io</title>
<path fill="none" stroke="#4b5563" stroke-width="1.2" d="M999.4,-115.32C1032.38,-96.58 1081.08,-68.91 1116.39,-48.84"/>
<polygon fill="#4b5563" stroke="#4b5563" stroke-width="1.2" points="997.95,-113.33 993.07,-118.91 1000.37,-117.59 997.95,-113.33"/>
<polygon fill="#4b5563" stroke="#4b5563" stroke-width="1.2" points="1117.95,-50.78 1122.83,-45.19 1115.53,-46.52 1117.95,-50.78"/>
<text text-anchor="middle" x="1099" y="-70.6" font-family="Arial" font-size="8.00" fill="#374151">pad control</text>
</g>
</g>
</svg>
