<?xml version="1.0" encoding="UTF-8" standalone="no"?>
<!DOCTYPE svg PUBLIC "-//W3C//DTD SVG 1.1//EN"
 "http://www.w3.org/Graphics/SVG/1.1/DTD/svg11.dtd">
<!-- Generated by graphviz version 2.43.0 (0)
 -->
<!-- Title: mini_soc_block_diagram Pages: 1 -->
<svg width="2939pt" height="896pt"
 viewBox="0.00 0.00 2939.00 896.48" xmlns="http://www.w3.org/2000/svg" xmlns:xlink="http://www.w3.org/1999/xlink">
<g id="graph0" class="graph" transform="scale(1 1) rotate(0) translate(4 892.48)">
<title>mini_soc_block_diagram</title>
<text text-anchor="middle" x="132" y="-870.08" font-family="Arial" font-size="18.00">retroSoC Mini SoC Architecture</text>
<g id="clust1" class="cluster">
<title>cluster_asic</title>
<path fill="transparent" stroke="#111827" d="M160,-85C160,-85 2911,-85 2911,-85 2917,-85 2923,-91 2923,-97 2923,-97 2923,-772.48 2923,-772.48 2923,-778.48 2917,-784.48 2911,-784.48 2911,-784.48 160,-784.48 160,-784.48 154,-784.48 148,-778.48 148,-772.48 148,-772.48 148,-97 148,-97 148,-91 154,-85 160,-85"/>
<text text-anchor="middle" x="196.5" y="-769.28" font-family="Arial" font-size="14.00" fill="#111827">retrosoc_asic</text>
</g>
<g id="clust2" class="cluster">
<title>cluster_soc</title>
<path fill="transparent" stroke="#94a3b8" stroke-dasharray="5,2" d="M390,-103C390,-103 2893,-103 2893,-103 2899,-103 2905,-109 2905,-115 2905,-115 2905,-729.48 2905,-729.48 2905,-735.48 2899,-741.48 2893,-741.48 2893,-741.48 390,-741.48 390,-741.48 384,-741.48 378,-735.48 378,-729.48 378,-729.48 378,-115 378,-115 378,-109 384,-103 390,-103"/>
<text text-anchor="middle" x="407.5" y="-727.88" font-family="Arial" font-size="12.00" fill="#334155">retrosoc</text>
</g>
<!-- ext_clock -->
<g id="node1" class="node">
<title>ext_clock</title>
<path fill="#f3f4f6" stroke="#4b5563" stroke-width="1.1" d="M118,-678.98C118,-678.98 12,-678.98 12,-678.98 6,-678.98 0,-672.98 0,-666.98 0,-666.98 0,-654.98 0,-654.98 0,-648.98 6,-642.98 12,-642.98 12,-642.98 118,-642.98 118,-642.98 124,-642.98 130,-648.98 130,-654.98 130,-654.98 130,-666.98 130,-666.98 130,-672.98 124,-678.98 118,-678.98"/>
<text text-anchor="middle" x="65" y="-663.98" font-family="Arial" font-size="10.00" fill="#111827">External clocks and reset</text>
<text text-anchor="middle" x="65" y="-652.98" font-family="Arial" font-size="10.00" fill="#111827">ext_clk, aud_clk, reset</text>
</g>
<!-- rcu -->
<g id="node4" class="node">
<title>rcu</title>
<path fill="#ede9fe" stroke="#4b5563" stroke-width="1.1" d="M350,-583.48C350,-583.48 178,-583.48 178,-583.48 172,-583.48 166,-577.48 166,-571.48 166,-571.48 166,-550.48 166,-550.48 166,-544.48 172,-538.48 178,-538.48 178,-538.48 350,-538.48 350,-538.48 356,-538.48 362,-544.48 362,-550.48 362,-550.48 362,-571.48 362,-571.48 362,-577.48 356,-583.48 350,-583.48"/>
<text text-anchor="middle" x="264" y="-569.48" font-family="Arial" font-size="10.00" fill="#111827">RCU</text>
<text text-anchor="middle" x="264" y="-558.48" font-family="Arial" font-size="10.00" fill="#111827">clock buffering and reset synchronization</text>
<text text-anchor="middle" x="264" y="-547.48" font-family="Arial" font-size="10.00" fill="#111827">PLL CDC and fixed 1 MHz timebase</text>
</g>
<!-- ext_clock&#45;&gt;rcu -->
<g id="edge1" class="edge">
<title>ext_clock&#45;&gt;rcu</title>
<path fill="none" stroke="#4b5563" stroke-width="1.2" d="M99.66,-642.91C131.11,-627.43 177.87,-604.4 213.48,-586.87"/>
<polygon fill="#4b5563" stroke="#4b5563" stroke-width="1.2" points="214.79,-588.95 219.99,-583.66 212.63,-584.55 214.79,-588.95"/>
<text text-anchor="middle" x="191.5" y="-609.08" font-family="Arial" font-size="8.00" fill="#374151">clock / reset</text>
</g>
<!-- ext_io -->
<g id="node2" class="node">
<title>ext_io</title>
<path fill="#f3f4f6" stroke="#4b5563" stroke-width="1.1" d="M1660,-45C1660,-45 1468,-45 1468,-45 1462,-45 1456,-39 1456,-33 1456,-33 1456,-12 1456,-12 1456,-6 1462,0 1468,0 1468,0 1660,0 1660,0 1666,0 1672,-6 1672,-12 1672,-12 1672,-33 1672,-33 1672,-39 1666,-45 1660,-45"/>
<text text-anchor="middle" x="1564" y="-31" font-family="Arial" font-size="10.00" fill="#111827">External I/O and memory</text>
<text text-anchor="middle" x="1564" y="-20" font-family="Arial" font-size="10.00" fill="#111827">GPIO, UART0, XPI Flash, SDRAM, PSRAM</text>
<text text-anchor="middle" x="1564" y="-9" font-family="Arial" font-size="10.00" fill="#111827">SD card, I2C, I2S, DVP and WS2812</text>
</g>
<!-- ext_jtag -->
<g id="node3" class="node">
<title>ext_jtag</title>
<path fill="#f3f4f6" stroke="#4b5563" stroke-width="1.1" d="M1106.5,-860.48C1106.5,-860.48 975.5,-860.48 975.5,-860.48 969.5,-860.48 963.5,-854.48 963.5,-848.48 963.5,-848.48 963.5,-836.48 963.5,-836.48 963.5,-830.48 969.5,-824.48 975.5,-824.48 975.5,-824.48 1106.5,-824.48 1106.5,-824.48 1112.5,-824.48 1118.5,-830.48 1118.5,-836.48 1118.5,-836.48 1118.5,-848.48 1118.5,-848.48 1118.5,-854.48 1112.5,-860.48 1106.5,-860.48"/>
<text text-anchor="middle" x="1041" y="-845.48" font-family="Arial" font-size="10.00" fill="#111827">Management JTAG</text>
<text text-anchor="middle" x="1041" y="-834.48" font-family="Arial" font-size="10.00" fill="#111827">TCK, TMS, TDI, TRST_n, TDO</text>
</g>
<!-- jtag_dtm -->
<g id="node6" class="node">
<title>jtag_dtm</title>
<path fill="#e5e7eb" stroke="#4b5563" stroke-width="1.1" d="M1116,-678.98C1116,-678.98 966,-678.98 966,-678.98 960,-678.98 954,-672.98 954,-666.98 954,-666.98 954,-654.98 954,-654.98 954,-648.98 960,-642.98 966,-642.98 966,-642.98 1116,-642.98 1116,-642.98 1122,-642.98 1128,-648.98 1128,-654.98 1128,-654.98 1128,-666.98 1128,-666.98 1128,-672.98 1122,-678.98 1116,-678.98"/>
<text text-anchor="middle" x="1041" y="-663.98" font-family="Arial" font-size="10.00" fill="#111827">Hazard3 JTAG DTM</text>
<text text-anchor="middle" x="1041" y="-652.98" font-family="Arial" font-size="10.00" fill="#111827">10 MHz asynchronous TCK domain</text>
</g>
<!-- ext_jtag&#45;&gt;jtag_dtm -->
<g id="edge2" class="edge">
<title>ext_jtag&#45;&gt;jtag_dtm</title>
<path fill="none" stroke="#4b5563" stroke-width="1.2" d="M1041,-824.27C1041,-792.24 1041,-723.39 1041,-686.51"/>
<polygon fill="#4b5563" stroke="#4b5563" stroke-width="1.2" points="1043.45,-686.14 1041,-679.14 1038.55,-686.14 1043.45,-686.14"/>
<text text-anchor="middle" x="1061" y="-795.08" font-family="Arial" font-size="8.00" fill="#374151">JTAG pads</text>
</g>
<!-- fabric -->
<g id="node11" class="node">
<title>fabric</title>
<path fill="#dcecf8" stroke="#4b5563" stroke-width="1.1" d="M1337.66,-451.31C1337.66,-451.31 1269.98,-479.16 1269.98,-479.16 1264.43,-481.45 1252.88,-483.73 1246.88,-483.73 1246.88,-483.73 1091.12,-483.73 1091.12,-483.73 1085.12,-483.73 1073.57,-481.45 1068.02,-479.16 1068.02,-479.16 1000.34,-451.31 1000.34,-451.31 994.79,-449.03 994.79,-444.46 1000.34,-442.18 1000.34,-442.18 1068.02,-414.32 1068.02,-414.32 1073.57,-412.04 1085.12,-409.76 1091.12,-409.76 1091.12,-409.76 1246.88,-409.76 1246.88,-409.76 1252.88,-409.76 1264.43,-412.04 1269.98,-414.32 1269.98,-414.32 1337.66,-442.18 1337.66,-442.18 1343.21,-444.46 1343.21,-449.03 1337.66,-451.31"/>
<text text-anchor="middle" x="1169" y="-455.24" font-family="Arial" font-size="10.00" fill="#111827">RIB fabric</text>
<text text-anchor="middle" x="1169" y="-444.24" font-family="Arial" font-size="10.00" fill="#111827">3&#45;master round&#45;robin arbitration</text>
<text text-anchor="middle" x="1169" y="-433.24" font-family="Arial" font-size="10.00" fill="#111827">INCR1 / INCR4, access policy, fault reporting</text>
</g>
<!-- rcu&#45;&gt;fabric -->
<g id="edge3" class="edge">
<title>rcu&#45;&gt;fabric</title>
<path fill="none" stroke="#4b5563" stroke-width="1.2" stroke-dasharray="5,2" d="M362.03,-540.47C368.2,-539.24 372,-538.48 372,-538.48 372,-538.48 792.5,-490.61 1022.63,-464.41"/>
<polygon fill="#4b5563" stroke="#4b5563" stroke-width="1.2" points="1023.04,-466.83 1029.72,-463.6 1022.49,-461.96 1023.04,-466.83"/>
<text text-anchor="middle" x="687" y="-509.08" font-family="Arial" font-size="8.00" fill="#374151">system clock / reset</text>
</g>
<!-- clint -->
<g id="node17" class="node">
<title>clint</title>
<path fill="#f9e1e7" stroke="#4b5563" stroke-width="1.1" d="M943.5,-255C943.5,-255 822.5,-255 822.5,-255 816.5,-255 810.5,-249 810.5,-243 810.5,-243 810.5,-222 810.5,-222 810.5,-216 816.5,-210 822.5,-210 822.5,-210 943.5,-210 943.5,-210 949.5,-210 955.5,-216 955.5,-222 955.5,-222 955.5,-243 955.5,-243 955.5,-249 949.5,-255 943.5,-255"/>
<text text-anchor="middle" x="883" y="-241" font-family="Arial" font-size="10.00" fill="#111827">CLINT</text>
<text text-anchor="middle" x="883" y="-230" font-family="Arial" font-size="10.00" fill="#111827">standard 64 KiB register map</text>
<text text-anchor="middle" x="883" y="-219" font-family="Arial" font-size="10.00" fill="#111827">mtime, mtimecmp and MSIP</text>
</g>
<!-- rcu&#45;&gt;clint -->
<g id="edge8" class="edge">
<title>rcu&#45;&gt;clint</title>
<path fill="none" stroke="#4b5563" stroke-width="1.2" stroke-dasharray="5,2" d="M300.25,-538.33C410.78,-472.3 736,-278 736,-278 736,-278 769.57,-267.84 804.63,-257.22"/>
<polygon fill="#4b5563" stroke="#4b5563" stroke-width="1.2" points="805.66,-259.47 811.65,-255.1 804.24,-254.78 805.66,-259.47"/>
<text text-anchor="middle" x="582.5" y="-380.6" font-family="Arial" font-size="8.00" fill="#374151">1 MHz tick</text>
</g>
<!-- mgmt_core -->
<g id="node5" class="node">
<title>mgmt_core</title>
<path fill="#ddf2e3" stroke="#4b5563" stroke-width="1.1" d="M1701,-683.48C1701,-683.48 1547,-683.48 1547,-683.48 1541,-683.48 1535,-677.48 1535,-671.48 1535,-671.48 1535,-650.48 1535,-650.48 1535,-644.48 1541,-638.48 1547,-638.48 1547,-638.48 1701,-638.48 1701,-638.48 1707,-638.48 1713,-644.48 1713,-650.48 1713,-650.48 1713,-671.48 1713,-671.48 1713,-677.48 1707,-683.48 1701,-683.48"/>
<text text-anchor="middle" x="1624" y="-669.48" font-family="Arial" font-size="10.00" fill="#111827">Management core</text>
<text text-anchor="middle" x="1624" y="-658.48" font-family="Arial" font-size="10.00" fill="#111827">Fixed Hazard3, branch predictor</text>
<text text-anchor="middle" x="1624" y="-647.48" font-family="Arial" font-size="10.00" fill="#111827">JTAG Debug Module always present</text>
</g>
<!-- mgmt_adapter -->
<g id="node8" class="node">
<title>mgmt_adapter</title>
<path fill="#e5e7eb" stroke="#4b5563" stroke-width="1.1" d="M1644.5,-578.98C1644.5,-578.98 1603.5,-578.98 1603.5,-578.98 1597.5,-578.98 1591.5,-572.98 1591.5,-566.98 1591.5,-566.98 1591.5,-554.98 1591.5,-554.98 1591.5,-548.98 1597.5,-542.98 1603.5,-542.98 1603.5,-542.98 1644.5,-542.98 1644.5,-542.98 1650.5,-542.98 1656.5,-548.98 1656.5,-554.98 1656.5,-554.98 1656.5,-566.98 1656.5,-566.98 1656.5,-572.98 1650.5,-578.98 1644.5,-578.98"/>
<text text-anchor="middle" x="1624" y="-558.48" font-family="Arial" font-size="10.00" fill="#111827">RIBP2RIB</text>
</g>
<!-- mgmt_core&#45;&gt;mgmt_adapter -->
<g id="edge9" class="edge">
<title>mgmt_core&#45;&gt;mgmt_adapter</title>
<path fill="none" stroke="#4b5563" stroke-width="1.2" d="M1624,-638.24C1624,-622.92 1624,-602.4 1624,-586.51"/>
<polygon fill="#4b5563" stroke="#4b5563" stroke-width="1.2" points="1626.45,-586.12 1624,-579.12 1621.55,-586.12 1626.45,-586.12"/>
<text text-anchor="middle" x="1633.5" y="-609.08" font-family="Arial" font-size="8.00" fill="#374151">RIBP</text>
</g>
<!-- debug_module -->
<g id="node7" class="node">
<title>debug_module</title>
<path fill="#fce7f3" stroke="#4b5563" stroke-width="1.1" d="M1377.5,-683.48C1377.5,-683.48 1256.5,-683.48 1256.5,-683.48 1250.5,-683.48 1244.5,-677.48 1244.5,-671.48 1244.5,-671.48 1244.5,-650.48 1244.5,-650.48 1244.5,-644.48 1250.5,-638.48 1256.5,-638.48 1256.5,-638.48 1377.5,-638.48 1377.5,-638.48 1383.5,-638.48 1389.5,-644.48 1389.5,-650.48 1389.5,-650.48 1389.5,-671.48 1389.5,-671.48 1389.5,-677.48 1383.5,-683.48 1377.5,-683.48"/>
<text text-anchor="middle" x="1317" y="-669.48" font-family="Arial" font-size="10.00" fill="#111827">Hazard3 Debug Module</text>
<text text-anchor="middle" x="1317" y="-658.48" font-family="Arial" font-size="10.00" fill="#111827">abstract commands, no SBA</text>
<text text-anchor="middle" x="1317" y="-647.48" font-family="Arial" font-size="10.00" fill="#111827">management&#45;hart&#45;only reset</text>
</g>
<!-- jtag_dtm&#45;&gt;debug_module -->
<g id="edge4" class="edge">
<title>jtag_dtm&#45;&gt;debug_module</title>
<path fill="none" stroke="#4b5563" stroke-width="1.2" d="M1128.33,-660.98C1163.12,-660.98 1202.91,-660.98 1236.95,-660.98"/>
<polygon fill="#4b5563" stroke="#4b5563" stroke-width="1.2" points="1237.12,-663.43 1244.12,-660.98 1237.12,-658.53 1237.12,-663.43"/>
<text text-anchor="middle" x="1186.25" y="-666.58" font-family="Arial" font-size="8.00" fill="#374151">DMI, asynchronous CDC</text>
</g>
<!-- debug_module&#45;&gt;mgmt_core -->
<g id="edge5" class="edge">
<title>debug_module&#45;&gt;mgmt_core</title>
<path fill="none" stroke="#4b5563" stroke-width="1.2" d="M1389.75,-660.98C1430.99,-660.98 1483.09,-660.98 1527.69,-660.98"/>
<polygon fill="#4b5563" stroke="#4b5563" stroke-width="1.2" points="1527.77,-663.43 1534.77,-660.98 1527.77,-658.53 1527.77,-663.43"/>
<text text-anchor="middle" x="1462.25" y="-666.58" font-family="Arial" font-size="8.00" fill="#374151">halt, resume, abstract commands</text>
</g>
<!-- debug_module&#45;&gt;mgmt_adapter -->
<g id="edge6" class="edge">
<title>debug_module&#45;&gt;mgmt_adapter</title>
<path fill="none" stroke="#4b5563" stroke-width="1.2" stroke-dasharray="5,2" d="M1389.7,-638.68C1466.93,-616.04 1578,-583.48 1578,-583.48 1578,-583.48 1580.57,-582.29 1584.49,-580.45"/>
<polygon fill="#4b5563" stroke="#4b5563" stroke-width="1.2" points="1585.75,-582.56 1591.06,-577.38 1583.68,-578.13 1585.75,-582.56"/>
<text text-anchor="middle" x="1531" y="-609.08" font-family="Arial" font-size="8.00" fill="#374151">reset after bridge idle</text>
</g>
<!-- timers -->
<g id="node22" class="node">
<title>timers</title>
<path fill="#f9e1e7" stroke="#4b5563" stroke-width="1.1" d="M771.5,-255C771.5,-255 590.5,-255 590.5,-255 584.5,-255 578.5,-249 578.5,-243 578.5,-243 578.5,-222 578.5,-222 578.5,-216 584.5,-210 590.5,-210 590.5,-210 771.5,-210 771.5,-210 777.5,-210 783.5,-216 783.5,-222 783.5,-222 783.5,-243 783.5,-243 783.5,-249 777.5,-255 771.5,-255"/>
<text text-anchor="middle" x="681" y="-241" font-family="Arial" font-size="10.00" fill="#111827">General timers 0/1</text>
<text text-anchor="middle" x="681" y="-230" font-family="Arial" font-size="10.00" fill="#111827">32&#45;bit counter, 16&#45;bit prescaler</text>
<text text-anchor="middle" x="681" y="-219" font-family="Arial" font-size="10.00" fill="#111827">periodic / one&#45;shot, compare, debug freeze</text>
</g>
<!-- debug_module&#45;&gt;timers -->
<g id="edge7" class="edge">
<title>debug_module&#45;&gt;timers</title>
<path fill="none" stroke="#4b5563" stroke-width="1.2" stroke-dasharray="5,2" d="M1244.49,-647.47C1091.36,-621.05 749,-561.98 749,-561.98 749,-561.98 749,-561.98 749,-336 749,-336 719.45,-291.46 699.31,-261.1"/>
<polygon fill="#4b5563" stroke="#4b5563" stroke-width="1.2" points="701.33,-259.72 695.42,-255.24 697.25,-262.43 701.33,-259.72"/>
<text text-anchor="middle" x="760" y="-444.84" font-family="Arial" font-size="8.00" fill="#374151">halted</text>
</g>
<!-- mgmt_adapter&#45;&gt;fabric -->
<g id="edge10" class="edge">
<title>mgmt_adapter&#45;&gt;fabric</title>
<path fill="none" stroke="#4b5563" stroke-width="1.2" d="M1591.06,-544.59C1583.69,-541.14 1578,-538.48 1578,-538.48 1578,-538.48 1486,-506.48 1486,-506.48 1486,-506.48 1386.24,-488 1298.65,-471.77"/>
<polygon fill="#4b5563" stroke="#4b5563" stroke-width="1.2" points="1298.89,-469.32 1291.56,-470.45 1298,-474.14 1298.89,-469.32"/>
<text text-anchor="middle" x="1517" y="-509.08" font-family="Arial" font-size="8.00" fill="#374151">RIB</text>
</g>
<!-- user_core -->
<g id="node9" class="node">
<title>user_core</title>
<path fill="#ddf2e3" stroke="#4b5563" stroke-width="1.1" d="M1552,-583.48C1552,-583.48 1476,-583.48 1476,-583.48 1470,-583.48 1464,-577.48 1464,-571.48 1464,-571.48 1464,-550.48 1464,-550.48 1464,-544.48 1470,-538.48 1476,-538.48 1476,-538.48 1552,-538.48 1552,-538.48 1558,-538.48 1564,-544.48 1564,-550.48 1564,-550.48 1564,-571.48 1564,-571.48 1564,-577.48 1558,-583.48 1552,-583.48"/>
<text text-anchor="middle" x="1514" y="-569.48" font-family="Arial" font-size="10.00" fill="#111827">Selected user core</text>
<text text-anchor="middle" x="1514" y="-558.48" font-family="Arial" font-size="10.00" fill="#111827">C0&#45;C5, one active</text>
<text text-anchor="middle" x="1514" y="-547.48" font-family="Arial" font-size="10.00" fill="#111827">PicoRV32 at C5</text>
</g>
<!-- user_core&#45;&gt;fabric -->
<g id="edge11" class="edge">
<title>user_core&#45;&gt;fabric</title>
<path fill="none" stroke="#4b5563" stroke-width="1.2" d="M1490.82,-538.22C1475.04,-523.41 1457,-506.48 1457,-506.48 1457,-506.48 1372.32,-489.21 1294.8,-473.4"/>
<polygon fill="#4b5563" stroke="#4b5563" stroke-width="1.2" points="1295.15,-470.97 1287.8,-471.97 1294.17,-475.77 1295.15,-470.97"/>
<text text-anchor="middle" x="1473" y="-509.08" font-family="Arial" font-size="8.00" fill="#374151">RIB</text>
</g>
<!-- dma -->
<g id="node10" class="node">
<title>dma</title>
<path fill="#ddf2e3" stroke="#4b5563" stroke-width="1.1" d="M1425,-578.98C1425,-578.98 1307,-578.98 1307,-578.98 1301,-578.98 1295,-572.98 1295,-566.98 1295,-566.98 1295,-554.98 1295,-554.98 1295,-548.98 1301,-542.98 1307,-542.98 1307,-542.98 1425,-542.98 1425,-542.98 1431,-542.98 1437,-548.98 1437,-554.98 1437,-554.98 1437,-566.98 1437,-566.98 1437,-572.98 1431,-578.98 1425,-578.98"/>
<text text-anchor="middle" x="1366" y="-563.98" font-family="Arial" font-size="10.00" fill="#111827">DMA</text>
<text text-anchor="middle" x="1366" y="-552.98" font-family="Arial" font-size="10.00" fill="#111827">RIB master and RIBP target</text>
</g>
<!-- dma&#45;&gt;fabric -->
<g id="edge12" class="edge">
<title>dma&#45;&gt;fabric</title>
<path fill="none" stroke="#4b5563" stroke-width="1.2" d="M1393.25,-542.91C1413.27,-530.36 1437,-515.48 1437,-515.48 1437,-515.48 1437,-506.48 1437,-506.48 1437,-506.48 1362.62,-490.18 1292.23,-474.75"/>
<polygon fill="#4b5563" stroke="#4b5563" stroke-width="1.2" points="1292.35,-472.27 1284.99,-473.17 1291.3,-477.06 1292.35,-472.27"/>
<text text-anchor="middle" x="1444" y="-509.08" font-family="Arial" font-size="8.00" fill="#374151">RIB</text>
</g>
<!-- uart0 -->
<g id="node19" class="node">
<title>uart0</title>
<path fill="#f9e1e7" stroke="#4b5563" stroke-width="1.1" d="M1644,-255C1644,-255 1484,-255 1484,-255 1478,-255 1472,-249 1472,-243 1472,-243 1472,-222 1472,-222 1472,-216 1478,-210 1484,-210 1484,-210 1644,-210 1644,-210 1650,-210 1656,-216 1656,-222 1656,-222 1656,-243 1656,-243 1656,-249 1650,-255 1644,-255"/>
<text text-anchor="middle" x="1564" y="-241" font-family="Arial" font-size="10.00" fill="#111827">UART0 V2</text>
<text text-anchor="middle" x="1564" y="-230" font-family="Arial" font-size="10.00" fill="#111827">64&#45;byte TX/RX FIFOs, fractional baud</text>
<text text-anchor="middle" x="1564" y="-219" font-family="Arial" font-size="10.00" fill="#111827">framing/errors, IRQ2, DMA&#45;paced</text>
</g>
<!-- dma&#45;&gt;uart0 -->
<g id="edge36" class="edge">
<title>dma&#45;&gt;uart0</title>
<path fill="none" stroke="#4b5563" stroke-width="1.2" stroke-dasharray="5,2" d="M1433.39,-542.94C1443.7,-540.33 1451,-538.48 1451,-538.48 1451,-538.48 1698,-483.48 1698,-483.48 1698,-483.48 1698,-410 1698,-410 1698,-410 1682,-378 1682,-378 1682,-378 1620.5,-302.69 1586.3,-260.81"/>
<polygon fill="#4b5563" stroke="#4b5563" stroke-width="1.2" points="1587.99,-259.01 1581.67,-255.13 1584.2,-262.1 1587.99,-259.01"/>
<text text-anchor="middle" x="1707.5" y="-380.6" font-family="Arial" font-size="8.00" fill="#374151">TX/RX data</text>
</g>
<!-- i2c_controllers -->
<g id="node20" class="node">
<title>i2c_controllers</title>
<path fill="#f9e1e7" stroke="#4b5563" stroke-width="1.1" d="M1432.5,-255C1432.5,-255 1247.5,-255 1247.5,-255 1241.5,-255 1235.5,-249 1235.5,-243 1235.5,-243 1235.5,-222 1235.5,-222 1235.5,-216 1241.5,-210 1247.5,-210 1247.5,-210 1432.5,-210 1432.5,-210 1438.5,-210 1444.5,-216 1444.5,-222 1444.5,-222 1444.5,-243 1444.5,-243 1444.5,-249 1438.5,-255 1432.5,-255"/>
<text text-anchor="middle" x="1340" y="-241" font-family="Arial" font-size="10.00" fill="#111827">I2C0 / I2C1 V2</text>
<text text-anchor="middle" x="1340" y="-230" font-family="Arial" font-size="10.00" fill="#111827">16&#45;entry command/RX FIFOs, Sm/Fm/Fm+</text>
<text text-anchor="middle" x="1340" y="-219" font-family="Arial" font-size="10.00" fill="#111827">7/10&#45;bit, IRQ7/19, DMA&#45;paced</text>
</g>
<!-- dma&#45;&gt;i2c_controllers -->
<g id="edge39" class="edge">
<title>dma&#45;&gt;i2c_controllers</title>
<path fill="none" stroke="#4b5563" stroke-width="1.2" stroke-dasharray="5,2" d="M1390.56,-542.91C1408.61,-530.36 1430,-515.48 1430,-515.48 1430,-515.48 1430,-506.48 1430,-506.48 1430,-506.48 976,-483.48 976,-483.48 976,-483.48 976,-410 976,-410 976,-410 1075,-378 1075,-378 1075,-378 1206,-355 1206,-355 1206,-355 1394,-296 1394,-296 1394,-296 1394,-278 1394,-278 1394,-278 1383.53,-269.37 1371.81,-259.71"/>
<polygon fill="#4b5563" stroke="#4b5563" stroke-width="1.2" points="1373.33,-257.79 1366.37,-255.23 1370.21,-261.57 1373.33,-257.79"/>
<text text-anchor="middle" x="1116" y="-380.6" font-family="Arial" font-size="8.00" fill="#374151">DATA_CMD / RXDATA</text>
</g>
<!-- ws2812 -->
<g id="node23" class="node">
<title>ws2812</title>
<path fill="#f9e1e7" stroke="#4b5563" stroke-width="1.1" d="M540,-255C540,-255 406,-255 406,-255 400,-255 394,-249 394,-243 394,-243 394,-222 394,-222 394,-216 400,-210 406,-210 406,-210 540,-210 540,-210 546,-210 552,-216 552,-222 552,-222 552,-243 552,-243 552,-249 546,-255 540,-255"/>
<text text-anchor="middle" x="473" y="-241" font-family="Arial" font-size="10.00" fill="#111827">WS2812 TX</text>
<text text-anchor="middle" x="473" y="-230" font-family="Arial" font-size="10.00" fill="#111827">24&#45;bit MSB&#45;first serializer</text>
<text text-anchor="middle" x="473" y="-219" font-family="Arial" font-size="10.00" fill="#111827">16&#45;word FIFO, IRQ17, DMA&#45;fed</text>
</g>
<!-- dma&#45;&gt;ws2812 -->
<g id="edge34" class="edge">
<title>dma&#45;&gt;ws2812</title>
<path fill="none" stroke="#4b5563" stroke-width="1.2" stroke-dasharray="5,2" d="M1294.75,-546.22C1180.73,-524.19 970,-483.48 970,-483.48 970,-483.48 647.98,-321.52 522.36,-258.33"/>
<polygon fill="#4b5563" stroke="#4b5563" stroke-width="1.2" points="523.16,-255.99 515.8,-255.03 520.96,-260.36 523.16,-255.99"/>
<text text-anchor="middle" x="799.5" y="-380.6" font-family="Arial" font-size="8.00" fill="#374151">TXDATA writes</text>
</g>
<!-- fault -->
<g id="node12" class="node">
<title>fault</title>
<path fill="#fce7f3" stroke="#4b5563" stroke-width="1.1" d="M1672.5,-464.74C1672.5,-464.74 1563.5,-464.74 1563.5,-464.74 1557.5,-464.74 1551.5,-458.74 1551.5,-452.74 1551.5,-452.74 1551.5,-440.74 1551.5,-440.74 1551.5,-434.74 1557.5,-428.74 1563.5,-428.74 1563.5,-428.74 1672.5,-428.74 1672.5,-428.74 1678.5,-428.74 1684.5,-434.74 1684.5,-440.74 1684.5,-440.74 1684.5,-452.74 1684.5,-452.74 1684.5,-458.74 1678.5,-464.74 1672.5,-464.74"/>
<text text-anchor="middle" x="1618" y="-449.74" font-family="Arial" font-size="10.00" fill="#111827">Error slave</text>
<text text-anchor="middle" x="1618" y="-438.74" font-family="Arial" font-size="10.00" fill="#111827">access and protocol faults</text>
</g>
<!-- fabric&#45;&gt;fault -->
<g id="edge13" class="edge">
<title>fabric&#45;&gt;fault</title>
<path fill="none" stroke="#4b5563" stroke-width="1.2" d="M1282.37,-478.99C1330.41,-492.66 1375.5,-505.48 1375.5,-505.48 1375.5,-505.48 1428.5,-505.48 1428.5,-505.48 1428.5,-505.48 1538,-483.48 1538,-483.48 1538,-483.48 1554.11,-476.08 1571.88,-467.93"/>
<polygon fill="#4b5563" stroke="#4b5563" stroke-width="1.2" points="1282.98,-476.62 1275.58,-477.06 1281.64,-481.33 1282.98,-476.62"/>
<polygon fill="#4b5563" stroke="#4b5563" stroke-width="1.2" points="1573.13,-470.05 1578.47,-464.9 1571.08,-465.59 1573.13,-470.05"/>
<text text-anchor="middle" x="1402" y="-509.08" font-family="Arial" font-size="8.00" fill="#374151">invalid / denied</text>
</g>
<!-- sram -->
<g id="node13" class="node">
<title>sram</title>
<path fill="#fff3c9" stroke="#4b5563" stroke-width="1.1" d="M1512,-464.74C1512,-464.74 1414,-464.74 1414,-464.74 1408,-464.74 1402,-458.74 1402,-452.74 1402,-452.74 1402,-440.74 1402,-440.74 1402,-434.74 1408,-428.74 1414,-428.74 1414,-428.74 1512,-428.74 1512,-428.74 1518,-428.74 1524,-434.74 1524,-440.74 1524,-440.74 1524,-452.74 1524,-452.74 1524,-458.74 1518,-464.74 1512,-464.74"/>
<text text-anchor="middle" x="1463" y="-449.74" font-family="Arial" font-size="10.00" fill="#111827">On&#45;chip SRAM</text>
<text text-anchor="middle" x="1463" y="-438.74" font-family="Arial" font-size="10.00" fill="#111827">optional RIB2RAM path</text>
</g>
<!-- fabric&#45;&gt;sram -->
<g id="edge14" class="edge">
<title>fabric&#45;&gt;sram</title>
<path fill="none" stroke="#4b5563" stroke-width="1.2" d="M1348.91,-446.74C1364.95,-446.74 1380.44,-446.74 1394.56,-446.74"/>
<polygon fill="#4b5563" stroke="#4b5563" stroke-width="1.2" points="1394.81,-449.19 1401.81,-446.74 1394.81,-444.29 1394.81,-449.19"/>
<text text-anchor="middle" x="1375.31" y="-452.34" font-family="Arial" font-size="8.00" fill="#374151">RIB</text>
</g>
<!-- ribp_adapter -->
<g id="node14" class="node">
<title>ribp_adapter</title>
<path fill="#e5e7eb" stroke="#4b5563" stroke-width="1.1" d="M1180.5,-355C1180.5,-355 1139.5,-355 1139.5,-355 1133.5,-355 1127.5,-349 1127.5,-343 1127.5,-343 1127.5,-331 1127.5,-331 1127.5,-325 1133.5,-319 1139.5,-319 1139.5,-319 1180.5,-319 1180.5,-319 1186.5,-319 1192.5,-325 1192.5,-331 1192.5,-331 1192.5,-343 1192.5,-343 1192.5,-349 1186.5,-355 1180.5,-355"/>
<text text-anchor="middle" x="1160" y="-334.5" font-family="Arial" font-size="10.00" fill="#111827">RIB2RIBP</text>
</g>
<!-- fabric&#45;&gt;ribp_adapter -->
<g id="edge15" class="edge">
<title>fabric&#45;&gt;ribp_adapter</title>
<path fill="none" stroke="#4b5563" stroke-width="1.2" d="M1166,-409.87C1164.7,-394.27 1163.21,-376.39 1162.04,-362.38"/>
<polygon fill="#4b5563" stroke="#4b5563" stroke-width="1.2" points="1164.45,-361.79 1161.42,-355.02 1159.56,-362.2 1164.45,-361.79"/>
<text text-anchor="middle" x="1170" y="-380.6" font-family="Arial" font-size="8.00" fill="#374151">RIB</text>
</g>
<!-- apb_adapter -->
<g id="node15" class="node">
<title>apb_adapter</title>
<path fill="#e5e7eb" stroke="#4b5563" stroke-width="1.1" d="M2420,-355C2420,-355 2350,-355 2350,-355 2344,-355 2338,-349 2338,-343 2338,-343 2338,-331 2338,-331 2338,-325 2344,-319 2350,-319 2350,-319 2420,-319 2420,-319 2426,-319 2432,-325 2432,-331 2432,-331 2432,-343 2432,-343 2432,-349 2426,-355 2420,-355"/>
<text text-anchor="middle" x="2385" y="-340" font-family="Arial" font-size="10.00" fill="#111827">RIB2APB</text>
<text text-anchor="middle" x="2385" y="-329" font-family="Arial" font-size="10.00" fill="#111827">direct APB bridge</text>
</g>
<!-- fabric&#45;&gt;apb_adapter -->
<g id="edge16" class="edge">
<title>fabric&#45;&gt;apb_adapter</title>
<path fill="none" stroke="#4b5563" stroke-width="1.2" d="M1296.34,-425.05C1344.99,-417.15 1389,-410 1389,-410 1389,-410 1666,-378 1666,-378 1666,-378 2162.98,-350.35 2330.57,-341.03"/>
<polygon fill="#4b5563" stroke="#4b5563" stroke-width="1.2" points="2330.97,-343.46 2337.82,-340.62 2330.7,-338.57 2330.97,-343.46"/>
<text text-anchor="middle" x="1673" y="-380.6" font-family="Arial" font-size="8.00" fill="#374151">RIB</text>
</g>
<!-- sysctrl -->
<g id="node16" class="node">
<title>sysctrl</title>
<path fill="#f9e1e7" stroke="#4b5563" stroke-width="1.1" d="M2114.5,-255C2114.5,-255 1951.5,-255 1951.5,-255 1945.5,-255 1939.5,-249 1939.5,-243 1939.5,-243 1939.5,-222 1939.5,-222 1939.5,-216 1945.5,-210 1951.5,-210 1951.5,-210 2114.5,-210 2114.5,-210 2120.5,-210 2126.5,-216 2126.5,-222 2126.5,-222 2126.5,-243 2126.5,-243 2126.5,-249 2120.5,-255 2114.5,-255"/>
<text text-anchor="middle" x="2033" y="-241" font-family="Arial" font-size="10.00" fill="#111827">SYSCTRL</text>
<text text-anchor="middle" x="2033" y="-230" font-family="Arial" font-size="10.00" fill="#111827">PLL, user&#45;core select/reset/bus enable</text>
<text text-anchor="middle" x="2033" y="-219" font-family="Arial" font-size="10.00" fill="#111827">fault and performance control</text>
</g>
<!-- ribp_adapter&#45;&gt;sysctrl -->
<g id="edge17" class="edge">
<title>ribp_adapter&#45;&gt;sysctrl</title>
<path fill="none" stroke="#4b5563" stroke-width="1.2" d="M1192.91,-332.52C1339.53,-317.02 1926,-255 1926,-255 1926,-255 1928.31,-254.54 1932.25,-253.74"/>
<polygon fill="#4b5563" stroke="#4b5563" stroke-width="1.2" points="1932.74,-256.14 1939.12,-252.36 1931.77,-251.34 1932.74,-256.14"/>
<text text-anchor="middle" x="1708.5" y="-285.1" font-family="Arial" font-size="8.00" fill="#374151">RIBP</text>
</g>
<!-- ribp_adapter&#45;&gt;clint -->
<g id="edge18" class="edge">
<title>ribp_adapter&#45;&gt;clint</title>
<path fill="none" stroke="#4b5563" stroke-width="1.2" d="M1127.41,-323.94C1083.5,-307.69 1004.37,-278.41 948.04,-257.57"/>
<polygon fill="#4b5563" stroke="#4b5563" stroke-width="1.2" points="948.71,-255.2 941.29,-255.07 947.01,-259.8 948.71,-255.2"/>
<text text-anchor="middle" x="1055.5" y="-285.1" font-family="Arial" font-size="8.00" fill="#374151">RIBP</text>
</g>
<!-- ribp_targets -->
<g id="node18" class="node">
<title>ribp_targets</title>
<path fill="#f9e1e7" stroke="#4b5563" stroke-width="1.1" d="M1900.5,-255C1900.5,-255 1695.5,-255 1695.5,-255 1689.5,-255 1683.5,-249 1683.5,-243 1683.5,-243 1683.5,-222 1683.5,-222 1683.5,-216 1689.5,-210 1695.5,-210 1695.5,-210 1900.5,-210 1900.5,-210 1906.5,-210 1912.5,-216 1912.5,-222 1912.5,-222 1912.5,-243 1912.5,-243 1912.5,-249 1906.5,-255 1900.5,-255"/>
<text text-anchor="middle" x="1798" y="-241" font-family="Arial" font-size="10.00" fill="#111827">RIBP target wrapper</text>
<text text-anchor="middle" x="1798" y="-230" font-family="Arial" font-size="10.00" fill="#111827">XPI/Flash, SDRAM, PSRAM, SPI&#45;SD and DVP</text>
<text text-anchor="middle" x="1798" y="-219" font-family="Arial" font-size="10.00" fill="#111827">I2S</text>
</g>
<!-- ribp_adapter&#45;&gt;ribp_targets -->
<g id="edge19" class="edge">
<title>ribp_adapter&#45;&gt;ribp_targets</title>
<path fill="none" stroke="#4b5563" stroke-width="1.2" d="M1192.58,-326.82C1234.5,-315.01 1302,-296 1302,-296 1302,-296 1332,-278 1332,-278 1332,-278 1670,-255 1670,-255 1670,-255 1672.29,-254.61 1676.27,-253.95"/>
<polygon fill="#4b5563" stroke="#4b5563" stroke-width="1.2" points="1676.72,-256.36 1683.22,-252.78 1675.91,-251.52 1676.72,-256.36"/>
<text text-anchor="middle" x="1341.5" y="-285.1" font-family="Arial" font-size="8.00" fill="#374151">RIBP</text>
</g>
<!-- ribp_adapter&#45;&gt;uart0 -->
<g id="edge20" class="edge">
<title>ribp_adapter&#45;&gt;uart0</title>
<path fill="none" stroke="#4b5563" stroke-width="1.2" d="M1192.6,-321.67C1218.71,-310.19 1251,-296 1251,-296 1251,-296 1281,-278 1281,-278 1281,-278 1458,-255 1458,-255 1458,-255 1460.57,-254.48 1464.91,-253.6"/>
<polygon fill="#4b5563" stroke="#4b5563" stroke-width="1.2" points="1465.48,-255.98 1471.86,-252.19 1464.51,-251.18 1465.48,-255.98"/>
<text text-anchor="middle" x="1290.5" y="-285.1" font-family="Arial" font-size="8.00" fill="#374151">RIBP</text>
</g>
<!-- ribp_adapter&#45;&gt;i2c_controllers -->
<g id="edge21" class="edge">
<title>ribp_adapter&#45;&gt;i2c_controllers</title>
<path fill="none" stroke="#4b5563" stroke-width="1.2" d="M1159.57,-318.8C1159.3,-307.96 1159,-296 1159,-296 1159,-296 1159,-278 1159,-278 1159,-278 1201.54,-267.54 1245.38,-256.76"/>
<polygon fill="#4b5563" stroke="#4b5563" stroke-width="1.2" points="1246.2,-259.08 1252.42,-255.03 1245.03,-254.33 1246.2,-259.08"/>
<text text-anchor="middle" x="1168.5" y="-285.1" font-family="Arial" font-size="8.00" fill="#374151">RIBP</text>
</g>
<!-- gpio_controller -->
<g id="node21" class="node">
<title>gpio_controller</title>
<path fill="#f9e1e7" stroke="#4b5563" stroke-width="1.1" d="M1145,-255C1145,-255 995,-255 995,-255 989,-255 983,-249 983,-243 983,-243 983,-222 983,-222 983,-216 989,-210 995,-210 995,-210 1145,-210 1145,-210 1151,-210 1157,-216 1157,-222 1157,-222 1157,-243 1157,-243 1157,-249 1151,-255 1145,-255"/>
<text text-anchor="middle" x="1070" y="-241" font-family="Arial" font-size="10.00" fill="#111827">GPIO V2</text>
<text text-anchor="middle" x="1070" y="-230" font-family="Arial" font-size="10.00" fill="#111827">user + management RIBP windows</text>
<text text-anchor="middle" x="1070" y="-219" font-family="Arial" font-size="10.00" fill="#111827">atomic I/O, filter, locks, IRQ18</text>
</g>
<!-- ribp_adapter&#45;&gt;gpio_controller -->
<g id="edge22" class="edge">
<title>ribp_adapter&#45;&gt;gpio_controller</title>
<path fill="none" stroke="#4b5563" stroke-width="1.2" d="M1128.62,-318.8C1108.83,-307.96 1087,-296 1087,-296 1087,-296 1082.23,-278.46 1077.74,-261.96"/>
<polygon fill="#4b5563" stroke="#4b5563" stroke-width="1.2" points="1080.05,-261.12 1075.85,-255.01 1075.32,-262.41 1080.05,-261.12"/>
<text text-anchor="middle" x="1107" y="-289.6" font-family="Arial" font-size="8.00" fill="#374151">RIBP</text>
<text text-anchor="middle" x="1107" y="-280.6" font-family="Arial" font-size="8.00" fill="#374151">user/admin</text>
</g>
<!-- ribp_adapter&#45;&gt;timers -->
<g id="edge23" class="edge">
<title>ribp_adapter&#45;&gt;timers</title>
<path fill="none" stroke="#4b5563" stroke-width="1.2" d="M1127.45,-329.04C1059.05,-314.4 897.71,-279.87 788.91,-256.59"/>
<polygon fill="#4b5563" stroke="#4b5563" stroke-width="1.2" points="789.18,-254.14 781.82,-255.07 788.15,-258.93 789.18,-254.14"/>
<text text-anchor="middle" x="972.5" y="-285.1" font-family="Arial" font-size="8.00" fill="#374151">RIBP</text>
</g>
<!-- ribp_adapter&#45;&gt;ws2812 -->
<g id="edge24" class="edge">
<title>ribp_adapter&#45;&gt;ws2812</title>
<path fill="none" stroke="#4b5563" stroke-width="1.2" d="M1127.41,-331.57C1050.87,-321.15 866,-296 866,-296 866,-296 565,-255 565,-255 565,-255 562.82,-254.49 559.14,-253.63"/>
<polygon fill="#4b5563" stroke="#4b5563" stroke-width="1.2" points="559.58,-251.22 552.21,-252.01 558.47,-255.99 559.58,-251.22"/>
<text text-anchor="middle" x="875.5" y="-285.1" font-family="Arial" font-size="8.00" fill="#374151">RIBP</text>
</g>
<!-- apb_targets -->
<g id="node24" class="node">
<title>apb_targets</title>
<path fill="#e6f4ea" stroke="#4b5563" stroke-width="1.1" d="M2356.5,-255C2356.5,-255 2165.5,-255 2165.5,-255 2159.5,-255 2153.5,-249 2153.5,-243 2153.5,-243 2153.5,-222 2153.5,-222 2153.5,-216 2159.5,-210 2165.5,-210 2165.5,-210 2356.5,-210 2356.5,-210 2362.5,-210 2368.5,-216 2368.5,-222 2368.5,-222 2368.5,-243 2368.5,-243 2368.5,-249 2362.5,-255 2356.5,-255"/>
<text text-anchor="middle" x="2261" y="-241" font-family="Arial" font-size="10.00" fill="#111827">APB target wrapper</text>
<text text-anchor="middle" x="2261" y="-230" font-family="Arial" font-size="10.00" fill="#111827">UART1, PWM, PS/2, RTC</text>
<text text-anchor="middle" x="2261" y="-219" font-family="Arial" font-size="10.00" fill="#111827">watchdog, CRC, advanced timer and user IP</text>
</g>
<!-- apb_adapter&#45;&gt;apb_targets -->
<g id="edge27" class="edge">
<title>apb_adapter&#45;&gt;apb_targets</title>
<path fill="none" stroke="#4b5563" stroke-width="1.2" d="M2364.25,-318.84C2344.8,-302.77 2315.44,-278.5 2292.99,-259.95"/>
<polygon fill="#4b5563" stroke="#4b5563" stroke-width="1.2" points="2294.4,-257.93 2287.45,-255.36 2291.28,-261.71 2294.4,-257.93"/>
<text text-anchor="middle" x="2342" y="-285.1" font-family="Arial" font-size="8.00" fill="#374151">APB</text>
</g>
<!-- archinfo -->
<g id="node25" class="node">
<title>archinfo</title>
<path fill="#e6f4ea" stroke="#4b5563" stroke-width="1.1" d="M2612,-255C2612,-255 2408,-255 2408,-255 2402,-255 2396,-249 2396,-243 2396,-243 2396,-222 2396,-222 2396,-216 2402,-210 2408,-210 2408,-210 2612,-210 2612,-210 2618,-210 2624,-216 2624,-222 2624,-222 2624,-243 2624,-243 2624,-249 2618,-255 2612,-255"/>
<text text-anchor="middle" x="2510" y="-241" font-family="Arial" font-size="10.00" fill="#111827">ARCHINFO V2</text>
<text text-anchor="middle" x="2510" y="-230" font-family="Arial" font-size="10.00" fill="#111827">read&#45;only build, topology and technology identity</text>
<text text-anchor="middle" x="2510" y="-219" font-family="Arial" font-size="10.00" fill="#111827">lifecycle&#45;gated 128&#45;bit device ID</text>
</g>
<!-- apb_adapter&#45;&gt;archinfo -->
<g id="edge25" class="edge">
<title>apb_adapter&#45;&gt;archinfo</title>
<path fill="none" stroke="#4b5563" stroke-width="1.2" d="M2405.92,-318.84C2425.53,-302.77 2455.12,-278.5 2477.75,-259.95"/>
<polygon fill="#4b5563" stroke="#4b5563" stroke-width="1.2" points="2479.48,-261.69 2483.34,-255.36 2476.37,-257.9 2479.48,-261.69"/>
<text text-anchor="middle" x="2462" y="-285.1" font-family="Arial" font-size="8.00" fill="#374151">APB</text>
</g>
<!-- rng -->
<g id="node26" class="node">
<title>rng</title>
<path fill="#e6f4ea" stroke="#4b5563" stroke-width="1.1" d="M2877,-255C2877,-255 2663,-255 2663,-255 2657,-255 2651,-249 2651,-243 2651,-243 2651,-222 2651,-222 2651,-216 2657,-210 2663,-210 2663,-210 2877,-210 2877,-210 2883,-210 2889,-216 2889,-222 2889,-222 2889,-243 2889,-243 2889,-249 2883,-255 2877,-255"/>
<text text-anchor="middle" x="2770" y="-241" font-family="Arial" font-size="10.00" fill="#111827">RNG V2 entropy controller</text>
<text text-anchor="middle" x="2770" y="-230" font-family="Arial" font-size="10.00" fill="#111827">8&#45;word FIFO, fail&#45;closed monitoring, IRQ16</text>
<text text-anchor="middle" x="2770" y="-219" font-family="Arial" font-size="10.00" fill="#111827">management&#45;only, deterministic source unqualified</text>
</g>
<!-- apb_adapter&#45;&gt;rng -->
<g id="edge26" class="edge">
<title>apb_adapter&#45;&gt;rng</title>
<path fill="none" stroke="#4b5563" stroke-width="1.2" d="M2432.21,-323.43C2494.29,-306.9 2604.56,-277.54 2682.19,-256.88"/>
<polygon fill="#4b5563" stroke="#4b5563" stroke-width="1.2" points="2683,-259.2 2689.13,-255.03 2681.74,-254.46 2683,-259.2"/>
<text text-anchor="middle" x="2608" y="-285.1" font-family="Arial" font-size="8.00" fill="#374151">APB</text>
</g>
<!-- irq -->
<g id="node28" class="node">
<title>irq</title>
<path fill="#fce7f3" stroke="#4b5563" stroke-width="1.1" d="M1226,-155C1226,-155 1020,-155 1020,-155 1014,-155 1008,-149 1008,-143 1008,-143 1008,-131 1008,-131 1008,-125 1014,-119 1020,-119 1020,-119 1226,-119 1226,-119 1232,-119 1238,-125 1238,-131 1238,-131 1238,-143 1238,-143 1238,-149 1232,-155 1226,-155"/>
<text text-anchor="middle" x="1123" y="-140" font-family="Arial" font-size="10.00" fill="#111827">Interrupt aggregation</text>
<text text-anchor="middle" x="1123" y="-129" font-family="Arial" font-size="10.00" fill="#111827">RIBP and APB target IRQs to management core</text>
</g>
<!-- clint&#45;&gt;irq -->
<g id="edge32" class="edge">
<title>clint&#45;&gt;irq</title>
<path fill="none" stroke="#4b5563" stroke-width="1.2" d="M935.5,-209.89C971.58,-195.05 1013,-178 1013,-178 1013,-178 1041.4,-167.67 1069.34,-157.51"/>
<polygon fill="#4b5563" stroke="#4b5563" stroke-width="1.2" points="1070.29,-159.77 1076.03,-155.08 1068.62,-155.17 1070.29,-159.77"/>
<text text-anchor="middle" x="1051.5" y="-180.6" font-family="Arial" font-size="8.00" fill="#374151">machine IRQ0 / IRQ1</text>
</g>
<!-- ribp_targets&#45;&gt;ext_io -->
<g id="edge43" class="edge">
<title>ribp_targets&#45;&gt;ext_io</title>
<path fill="none" stroke="#4b5563" stroke-width="1.2" d="M1767.9,-204.74C1722.81,-164.66 1638.27,-89.52 1593.52,-49.74"/>
<polygon fill="#4b5563" stroke="#4b5563" stroke-width="1.2" points="1766.54,-206.81 1773.4,-209.63 1769.8,-203.15 1766.54,-206.81"/>
<polygon fill="#4b5563" stroke="#4b5563" stroke-width="1.2" points="1595.13,-47.89 1588.27,-45.07 1591.87,-51.56 1595.13,-47.89"/>
<text text-anchor="middle" x="1741" y="-135.1" font-family="Arial" font-size="8.00" fill="#374151">device interfaces</text>
</g>
<!-- ribp_targets&#45;&gt;gpio_controller -->
<g id="edge28" class="edge">
<title>ribp_targets&#45;&gt;gpio_controller</title>
<path fill="none" stroke="#4b5563" stroke-width="1.2" d="M1683.22,-252.68C1675.08,-254.11 1670,-255 1670,-255 1670,-255 1250,-282.5 1250,-282.5 1250,-282.5 1184,-282.5 1184,-282.5 1184,-282.5 1156.22,-270.32 1128.09,-257.98"/>
<polygon fill="#4b5563" stroke="#4b5563" stroke-width="1.2" points="1128.73,-255.58 1121.33,-255.01 1126.76,-260.07 1128.73,-255.58"/>
<text text-anchor="middle" x="1217" y="-285.1" font-family="Arial" font-size="8.00" fill="#374151">alternate functions</text>
</g>
<!-- uart0&#45;&gt;ext_io -->
<g id="edge44" class="edge">
<title>uart0&#45;&gt;ext_io</title>
<path fill="none" stroke="#4b5563" stroke-width="1.2" d="M1564,-202.41C1564,-162.61 1564,-91.61 1564,-52.07"/>
<polygon fill="#4b5563" stroke="#4b5563" stroke-width="1.2" points="1561.55,-202.63 1564,-209.63 1566.45,-202.63 1561.55,-202.63"/>
<polygon fill="#4b5563" stroke="#4b5563" stroke-width="1.2" points="1566.45,-52.07 1564,-45.07 1561.55,-52.07 1566.45,-52.07"/>
<text text-anchor="middle" x="1585" y="-135.1" font-family="Arial" font-size="8.00" fill="#374151">UART pads</text>
</g>
<!-- uart0&#45;&gt;irq -->
<g id="edge37" class="edge">
<title>uart0&#45;&gt;irq</title>
<path fill="none" stroke="#4b5563" stroke-width="1.2" d="M1471.82,-211.96C1394.89,-195.65 1286,-172.56 1210.43,-156.54"/>
<polygon fill="#4b5563" stroke="#4b5563" stroke-width="1.2" points="1210.58,-154.06 1203.22,-155.01 1209.56,-158.86 1210.58,-154.06"/>
<text text-anchor="middle" x="1352.5" y="-180.6" font-family="Arial" font-size="8.00" fill="#374151">IRQ2</text>
</g>
<!-- i2c_controllers&#45;&gt;gpio_controller -->
<g id="edge38" class="edge">
<title>i2c_controllers&#45;&gt;gpio_controller</title>
<path fill="none" stroke="#4b5563" stroke-width="1.2" d="M1235.1,-232.5C1211.78,-232.5 1187.19,-232.5 1164.33,-232.5"/>
<polygon fill="#4b5563" stroke="#4b5563" stroke-width="1.2" points="1164.29,-230.05 1157.29,-232.5 1164.29,-234.95 1164.29,-230.05"/>
<text text-anchor="middle" x="1196.25" y="-247.1" font-family="Arial" font-size="8.00" fill="#374151">GPIO3/4 ALT1</text>
<text text-anchor="middle" x="1196.25" y="-238.1" font-family="Arial" font-size="8.00" fill="#374151">GPIO7/8 ALT0</text>
</g>
<!-- i2c_controllers&#45;&gt;irq -->
<g id="edge40" class="edge">
<title>i2c_controllers&#45;&gt;irq</title>
<path fill="none" stroke="#4b5563" stroke-width="1.2" d="M1289.94,-209.93C1253.53,-194.24 1204.61,-173.16 1169.14,-157.88"/>
<polygon fill="#4b5563" stroke="#4b5563" stroke-width="1.2" points="1170.08,-155.62 1162.68,-155.1 1168.14,-160.12 1170.08,-155.62"/>
<text text-anchor="middle" x="1255.5" y="-180.6" font-family="Arial" font-size="8.00" fill="#374151">IRQ7 / IRQ19</text>
</g>
<!-- gpio_bridge -->
<g id="node27" class="node">
<title>gpio_bridge</title>
<path fill="#e5e7eb" stroke="#4b5563" stroke-width="1.1" d="M932.5,-155C932.5,-155 797.5,-155 797.5,-155 791.5,-155 785.5,-149 785.5,-143 785.5,-143 785.5,-131 785.5,-131 785.5,-125 791.5,-119 797.5,-119 797.5,-119 932.5,-119 932.5,-119 938.5,-119 944.5,-125 944.5,-131 944.5,-131 944.5,-143 944.5,-143 944.5,-149 938.5,-155 932.5,-155"/>
<text text-anchor="middle" x="865" y="-140" font-family="Arial" font-size="10.00" fill="#111827">GPIO pad bridge</text>
<text text-anchor="middle" x="865" y="-129" font-family="Arial" font-size="10.00" fill="#111827">PDK capability&#45;adapted controls</text>
</g>
<!-- gpio_controller&#45;&gt;gpio_bridge -->
<g id="edge29" class="edge">
<title>gpio_controller&#45;&gt;gpio_bridge</title>
<path fill="none" stroke="#4b5563" stroke-width="1.2" d="M982.94,-212.69C926.71,-200.55 864,-187 864,-187 864,-187 864,-178 864,-178 864,-178 864.18,-170.7 864.39,-162.33"/>
<polygon fill="#4b5563" stroke="#4b5563" stroke-width="1.2" points="866.84,-162.25 864.57,-155.2 861.95,-162.13 866.84,-162.25"/>
<text text-anchor="middle" x="884" y="-180.6" font-family="Arial" font-size="8.00" fill="#374151">pad control</text>
</g>
<!-- gpio_controller&#45;&gt;irq -->
<g id="edge30" class="edge">
<title>gpio_controller&#45;&gt;irq</title>
<path fill="none" stroke="#4b5563" stroke-width="1.2" d="M1082.29,-209.81C1090.46,-195.41 1101.18,-176.49 1109.57,-161.68"/>
<polygon fill="#4b5563" stroke="#4b5563" stroke-width="1.2" points="1111.93,-162.5 1113.25,-155.2 1107.66,-160.09 1111.93,-162.5"/>
<text text-anchor="middle" x="1111" y="-180.6" font-family="Arial" font-size="8.00" fill="#374151">IRQ18</text>
</g>
<!-- timers&#45;&gt;irq -->
<g id="edge31" class="edge">
<title>timers&#45;&gt;irq</title>
<path fill="none" stroke="#4b5563" stroke-width="1.2" d="M783.62,-211.2C842.97,-199.47 906,-187 906,-187 906,-187 940,-178 940,-178 940,-178 990.25,-167.02 1038.09,-156.56"/>
<polygon fill="#4b5563" stroke="#4b5563" stroke-width="1.2" points="1038.81,-158.91 1045.13,-155.02 1037.76,-154.12 1038.81,-158.91"/>
<text text-anchor="middle" x="962.5" y="-180.6" font-family="Arial" font-size="8.00" fill="#374151">IRQ3 / IRQ4</text>
</g>
<!-- ws2812&#45;&gt;gpio_bridge -->
<g id="edge33" class="edge">
<title>ws2812&#45;&gt;gpio_bridge</title>
<path fill="none" stroke="#4b5563" stroke-width="1.2" d="M535.6,-209.89C578.62,-195.05 628,-178 628,-178 628,-178 710.79,-164.03 778.5,-152.6"/>
<polygon fill="#4b5563" stroke="#4b5563" stroke-width="1.2" points="778.93,-155.01 785.42,-151.43 778.11,-150.18 778.93,-155.01"/>
<text text-anchor="middle" x="650.5" y="-180.6" font-family="Arial" font-size="8.00" fill="#374151">GPIO2 ALT1</text>
</g>
<!-- ws2812&#45;&gt;irq -->
<g id="edge35" class="edge">
<title>ws2812&#45;&gt;irq</title>
<path fill="none" stroke="#4b5563" stroke-width="1.2" d="M552.21,-212.99C559.95,-211.18 565,-210 565,-210 565,-210 836.2,-175.01 1000.47,-153.81"/>
<polygon fill="#4b5563" stroke="#4b5563" stroke-width="1.2" points="1001.09,-156.2 1007.72,-152.87 1000.46,-151.34 1001.09,-156.2"/>
<text text-anchor="middle" x="822" y="-180.6" font-family="Arial" font-size="8.00" fill="#374151">IRQ17</text>
</g>
<!-- apb_targets&#45;&gt;gpio_controller -->
<g id="edge42" class="edge">
<title>apb_targets&#45;&gt;gpio_controller</title>
<path fill="none" stroke="#4b5563" stroke-width="1.2" d="M2153.41,-252.51C2145.19,-254.04 2140,-255 2140,-255 2140,-255 1393,-282.5 1393,-282.5 1393,-282.5 1357,-282.5 1357,-282.5 1357,-282.5 1247.93,-263.5 1164.27,-248.92"/>
<polygon fill="#4b5563" stroke="#4b5563" stroke-width="1.2" points="1164.6,-246.49 1157.28,-247.71 1163.75,-251.32 1164.6,-246.49"/>
<text text-anchor="middle" x="1375" y="-285.1" font-family="Arial" font-size="8.00" fill="#374151">user_gpio</text>
</g>
<!-- rng&#45;&gt;irq -->
<g id="edge41" class="edge">
<title>rng&#45;&gt;irq</title>
<path fill="none" stroke="#4b5563" stroke-width="1.2" d="M2650.66,-212.06C2642.84,-210.79 2638,-210 2638,-210 2638,-210 1605.41,-160.93 1245.2,-143.81"/>
<polygon fill="#4b5563" stroke="#4b5563" stroke-width="1.2" points="1245.22,-141.36 1238.11,-143.47 1244.99,-146.25 1245.22,-141.36"/>
<text text-anchor="middle" x="2159" y="-180.6" font-family="Arial" font-size="8.00" fill="#374151">IRQ16</text>
</g>
<!-- gpio_bridge&#45;&gt;ext_io -->
<g id="edge45" class="edge">
<title>gpio_bridge&#45;&gt;ext_io</title>
<path fill="none" stroke="#4b5563" stroke-width="1.2" d="M915.39,-116.23C951.94,-101.89 995,-85 995,-85 995,-85 1282.34,-53.94 1448.64,-35.97"/>
<polygon fill="#4b5563" stroke="#4b5563" stroke-width="1.2" points="914.27,-114.04 908.65,-118.88 916.06,-118.6 914.27,-114.04"/>
<polygon fill="#4b5563" stroke="#4b5563" stroke-width="1.2" points="1449.28,-38.36 1455.97,-35.18 1448.75,-33.49 1449.28,-38.36"/>
<text text-anchor="middle" x="1167" y="-70.6" font-family="Arial" font-size="8.00" fill="#374151">pad control</text>
</g>
</g>
</svg>
