<?xml version="1.0" encoding="UTF-8" standalone="no"?>
<!DOCTYPE svg PUBLIC "-//W3C//DTD SVG 1.1//EN"
 "http://www.w3.org/Graphics/SVG/1.1/DTD/svg11.dtd">
<!-- Generated by graphviz version 2.43.0 (0)
 -->
<!-- Title: mini_soc_block_diagram Pages: 1 -->
<svg width="1203pt" height="887pt"
 viewBox="0.00 0.00 1203.00 887.48" xmlns="http://www.w3.org/2000/svg" xmlns:xlink="http://www.w3.org/1999/xlink">
<g id="graph0" class="graph" transform="scale(1 1) rotate(0) translate(4 883.48)">
<title>mini_soc_block_diagram</title>
<text text-anchor="middle" x="132" y="-861.08" font-family="Arial" font-size="18.00">retroSoC Mini SoC Architecture</text>
<g id="clust1" class="cluster">
<title>cluster_asic</title>
<path fill="transparent" stroke="#111827" d="M160,-85C160,-85 1175,-85 1175,-85 1181,-85 1187,-91 1187,-97 1187,-97 1187,-763.48 1187,-763.48 1187,-769.48 1181,-775.48 1175,-775.48 1175,-775.48 160,-775.48 160,-775.48 154,-775.48 148,-769.48 148,-763.48 148,-763.48 148,-97 148,-97 148,-91 154,-85 160,-85"/>
<text text-anchor="middle" x="196.5" y="-760.28" font-family="Arial" font-size="14.00" fill="#111827">retrosoc_asic</text>
</g>
<g id="clust2" class="cluster">
<title>cluster_soc</title>
<path fill="transparent" stroke="#94a3b8" stroke-dasharray="5,2" d="M390,-103C390,-103 1157,-103 1157,-103 1163,-103 1169,-109 1169,-115 1169,-115 1169,-720.48 1169,-720.48 1169,-726.48 1163,-732.48 1157,-732.48 1157,-732.48 390,-732.48 390,-732.48 384,-732.48 378,-726.48 378,-720.48 378,-720.48 378,-115 378,-115 378,-109 384,-103 390,-103"/>
<text text-anchor="middle" x="407.5" y="-718.88" font-family="Arial" font-size="12.00" fill="#334155">retrosoc</text>
</g>
<!-- ext_clock -->
<g id="node1" class="node">
<title>ext_clock</title>
<path fill="#f3f4f6" stroke="#4b5563" stroke-width="1.1" d="M118,-669.98C118,-669.98 12,-669.98 12,-669.98 6,-669.98 0,-663.98 0,-657.98 0,-657.98 0,-645.98 0,-645.98 0,-639.98 6,-633.98 12,-633.98 12,-633.98 118,-633.98 118,-633.98 124,-633.98 130,-639.98 130,-645.98 130,-645.98 130,-657.98 130,-657.98 130,-663.98 124,-669.98 118,-669.98"/>
<text text-anchor="middle" x="65" y="-654.98" font-family="Arial" font-size="10.00" fill="#111827">External clocks and reset</text>
<text text-anchor="middle" x="65" y="-643.98" font-family="Arial" font-size="10.00" fill="#111827">ext_clk, aud_clk, reset</text>
</g>
<!-- rcu -->
<g id="node4" class="node">
<title>rcu</title>
<path fill="#ede9fe" stroke="#4b5563" stroke-width="1.1" d="M350,-574.48C350,-574.48 178,-574.48 178,-574.48 172,-574.48 166,-568.48 166,-562.48 166,-562.48 166,-541.48 166,-541.48 166,-535.48 172,-529.48 178,-529.48 178,-529.48 350,-529.48 350,-529.48 356,-529.48 362,-535.48 362,-541.48 362,-541.48 362,-562.48 362,-562.48 362,-568.48 356,-574.48 350,-574.48"/>
<text text-anchor="middle" x="264" y="-560.48" font-family="Arial" font-size="10.00" fill="#111827">RCU</text>
<text text-anchor="middle" x="264" y="-549.48" font-family="Arial" font-size="10.00" fill="#111827">clock buffering and reset synchronization</text>
<text text-anchor="middle" x="264" y="-538.48" font-family="Arial" font-size="10.00" fill="#111827">PLL request/acknowledgment CDC</text>
</g>
<!-- ext_clock&#45;&gt;rcu -->
<g id="edge1" class="edge">
<title>ext_clock&#45;&gt;rcu</title>
<path fill="none" stroke="#4b5563" stroke-width="1.2" d="M99.66,-633.91C131.11,-618.43 177.87,-595.4 213.48,-577.87"/>
<polygon fill="#4b5563" stroke="#4b5563" stroke-width="1.2" points="214.79,-579.95 219.99,-574.66 212.63,-575.55 214.79,-579.95"/>
<text text-anchor="middle" x="191.5" y="-600.08" font-family="Arial" font-size="8.00" fill="#374151">clock / reset</text>
</g>
<!-- ext_io -->
<g id="node2" class="node">
<title>ext_io</title>
<path fill="#f3f4f6" stroke="#4b5563" stroke-width="1.1" d="M997,-45C997,-45 805,-45 805,-45 799,-45 793,-39 793,-33 793,-33 793,-12 793,-12 793,-6 799,0 805,0 805,0 997,0 997,0 1003,0 1009,-6 1009,-12 1009,-12 1009,-33 1009,-33 1009,-39 1003,-45 997,-45"/>
<text text-anchor="middle" x="901" y="-31" font-family="Arial" font-size="10.00" fill="#111827">External I/O and memory</text>
<text text-anchor="middle" x="901" y="-20" font-family="Arial" font-size="10.00" fill="#111827">GPIO, UART0, XPI Flash, SDRAM, PSRAM</text>
<text text-anchor="middle" x="901" y="-9" font-family="Arial" font-size="10.00" fill="#111827">SD card, I2C, I2S, DVP and serial I/O</text>
</g>
<!-- ext_jtag -->
<g id="node3" class="node">
<title>ext_jtag</title>
<path fill="#f3f4f6" stroke="#4b5563" stroke-width="1.1" d="M546.5,-851.48C546.5,-851.48 415.5,-851.48 415.5,-851.48 409.5,-851.48 403.5,-845.48 403.5,-839.48 403.5,-839.48 403.5,-827.48 403.5,-827.48 403.5,-821.48 409.5,-815.48 415.5,-815.48 415.5,-815.48 546.5,-815.48 546.5,-815.48 552.5,-815.48 558.5,-821.48 558.5,-827.48 558.5,-827.48 558.5,-839.48 558.5,-839.48 558.5,-845.48 552.5,-851.48 546.5,-851.48"/>
<text text-anchor="middle" x="481" y="-836.48" font-family="Arial" font-size="10.00" fill="#111827">Management JTAG</text>
<text text-anchor="middle" x="481" y="-825.48" font-family="Arial" font-size="10.00" fill="#111827">TCK, TMS, TDI, TRST_n, TDO</text>
</g>
<!-- jtag_dtm -->
<g id="node6" class="node">
<title>jtag_dtm</title>
<path fill="#e5e7eb" stroke="#4b5563" stroke-width="1.1" d="M556,-669.98C556,-669.98 406,-669.98 406,-669.98 400,-669.98 394,-663.98 394,-657.98 394,-657.98 394,-645.98 394,-645.98 394,-639.98 400,-633.98 406,-633.98 406,-633.98 556,-633.98 556,-633.98 562,-633.98 568,-639.98 568,-645.98 568,-645.98 568,-657.98 568,-657.98 568,-663.98 562,-669.98 556,-669.98"/>
<text text-anchor="middle" x="481" y="-654.98" font-family="Arial" font-size="10.00" fill="#111827">Hazard3 JTAG DTM</text>
<text text-anchor="middle" x="481" y="-643.98" font-family="Arial" font-size="10.00" fill="#111827">10 MHz asynchronous TCK domain</text>
</g>
<!-- ext_jtag&#45;&gt;jtag_dtm -->
<g id="edge2" class="edge">
<title>ext_jtag&#45;&gt;jtag_dtm</title>
<path fill="none" stroke="#4b5563" stroke-width="1.2" d="M481,-815.27C481,-783.24 481,-714.39 481,-677.51"/>
<polygon fill="#4b5563" stroke="#4b5563" stroke-width="1.2" points="483.45,-677.14 481,-670.14 478.55,-677.14 483.45,-677.14"/>
<text text-anchor="middle" x="501" y="-786.08" font-family="Arial" font-size="8.00" fill="#374151">JTAG pads</text>
</g>
<!-- fabric -->
<g id="node11" class="node">
<title>fabric</title>
<path fill="#dcecf8" stroke="#4b5563" stroke-width="1.1" d="M774.66,-442.31C774.66,-442.31 706.98,-470.16 706.98,-470.16 701.43,-472.45 689.88,-474.73 683.88,-474.73 683.88,-474.73 528.12,-474.73 528.12,-474.73 522.12,-474.73 510.57,-472.45 505.02,-470.16 505.02,-470.16 437.34,-442.31 437.34,-442.31 431.79,-440.03 431.79,-435.46 437.34,-433.18 437.34,-433.18 505.02,-405.32 505.02,-405.32 510.57,-403.04 522.12,-400.76 528.12,-400.76 528.12,-400.76 683.88,-400.76 683.88,-400.76 689.88,-400.76 701.43,-403.04 706.98,-405.32 706.98,-405.32 774.66,-433.18 774.66,-433.18 780.21,-435.46 780.21,-440.03 774.66,-442.31"/>
<text text-anchor="middle" x="606" y="-446.24" font-family="Arial" font-size="10.00" fill="#111827">RIB fabric</text>
<text text-anchor="middle" x="606" y="-435.24" font-family="Arial" font-size="10.00" fill="#111827">3&#45;master round&#45;robin arbitration</text>
<text text-anchor="middle" x="606" y="-424.24" font-family="Arial" font-size="10.00" fill="#111827">INCR1 / INCR4, access policy, fault reporting</text>
</g>
<!-- rcu&#45;&gt;fabric -->
<g id="edge3" class="edge">
<title>rcu&#45;&gt;fabric</title>
<path fill="none" stroke="#4b5563" stroke-width="1.2" stroke-dasharray="5,2" d="M329.54,-529.48C377.9,-513.6 444.73,-491.67 500.57,-473.34"/>
<polygon fill="#4b5563" stroke="#4b5563" stroke-width="1.2" points="501.44,-475.64 507.33,-471.13 499.91,-470.98 501.44,-475.64"/>
<text text-anchor="middle" x="459" y="-500.08" font-family="Arial" font-size="8.00" fill="#374151">system clock / reset</text>
</g>
<!-- mgmt_core -->
<g id="node5" class="node">
<title>mgmt_core</title>
<path fill="#ddf2e3" stroke="#4b5563" stroke-width="1.1" d="M1141,-674.48C1141,-674.48 987,-674.48 987,-674.48 981,-674.48 975,-668.48 975,-662.48 975,-662.48 975,-641.48 975,-641.48 975,-635.48 981,-629.48 987,-629.48 987,-629.48 1141,-629.48 1141,-629.48 1147,-629.48 1153,-635.48 1153,-641.48 1153,-641.48 1153,-662.48 1153,-662.48 1153,-668.48 1147,-674.48 1141,-674.48"/>
<text text-anchor="middle" x="1064" y="-660.48" font-family="Arial" font-size="10.00" fill="#111827">Management core</text>
<text text-anchor="middle" x="1064" y="-649.48" font-family="Arial" font-size="10.00" fill="#111827">Fixed Hazard3, branch predictor</text>
<text text-anchor="middle" x="1064" y="-638.48" font-family="Arial" font-size="10.00" fill="#111827">JTAG Debug Module always present</text>
</g>
<!-- mgmt_adapter -->
<g id="node8" class="node">
<title>mgmt_adapter</title>
<path fill="#e5e7eb" stroke="#4b5563" stroke-width="1.1" d="M777.5,-569.98C777.5,-569.98 736.5,-569.98 736.5,-569.98 730.5,-569.98 724.5,-563.98 724.5,-557.98 724.5,-557.98 724.5,-545.98 724.5,-545.98 724.5,-539.98 730.5,-533.98 736.5,-533.98 736.5,-533.98 777.5,-533.98 777.5,-533.98 783.5,-533.98 789.5,-539.98 789.5,-545.98 789.5,-545.98 789.5,-557.98 789.5,-557.98 789.5,-563.98 783.5,-569.98 777.5,-569.98"/>
<text text-anchor="middle" x="757" y="-549.48" font-family="Arial" font-size="10.00" fill="#111827">RIBP2RIB</text>
</g>
<!-- mgmt_core&#45;&gt;mgmt_adapter -->
<g id="edge7" class="edge">
<title>mgmt_core&#45;&gt;mgmt_adapter</title>
<path fill="none" stroke="#4b5563" stroke-width="1.2" d="M996.63,-629.48C935.43,-609.94 847.24,-581.79 796.67,-565.65"/>
<polygon fill="#4b5563" stroke="#4b5563" stroke-width="1.2" points="797.21,-563.25 789.79,-563.45 795.72,-567.92 797.21,-563.25"/>
<text text-anchor="middle" x="928.5" y="-600.08" font-family="Arial" font-size="8.00" fill="#374151">RIBP</text>
</g>
<!-- debug_module -->
<g id="node7" class="node">
<title>debug_module</title>
<path fill="#fce7f3" stroke="#4b5563" stroke-width="1.1" d="M817.5,-674.48C817.5,-674.48 696.5,-674.48 696.5,-674.48 690.5,-674.48 684.5,-668.48 684.5,-662.48 684.5,-662.48 684.5,-641.48 684.5,-641.48 684.5,-635.48 690.5,-629.48 696.5,-629.48 696.5,-629.48 817.5,-629.48 817.5,-629.48 823.5,-629.48 829.5,-635.48 829.5,-641.48 829.5,-641.48 829.5,-662.48 829.5,-662.48 829.5,-668.48 823.5,-674.48 817.5,-674.48"/>
<text text-anchor="middle" x="757" y="-660.48" font-family="Arial" font-size="10.00" fill="#111827">Hazard3 Debug Module</text>
<text text-anchor="middle" x="757" y="-649.48" font-family="Arial" font-size="10.00" fill="#111827">abstract commands, no SBA</text>
<text text-anchor="middle" x="757" y="-638.48" font-family="Arial" font-size="10.00" fill="#111827">management&#45;hart&#45;only reset</text>
</g>
<!-- jtag_dtm&#45;&gt;debug_module -->
<g id="edge4" class="edge">
<title>jtag_dtm&#45;&gt;debug_module</title>
<path fill="none" stroke="#4b5563" stroke-width="1.2" d="M568.33,-651.98C603.12,-651.98 642.91,-651.98 676.95,-651.98"/>
<polygon fill="#4b5563" stroke="#4b5563" stroke-width="1.2" points="677.12,-654.43 684.12,-651.98 677.12,-649.53 677.12,-654.43"/>
<text text-anchor="middle" x="626.25" y="-657.58" font-family="Arial" font-size="8.00" fill="#374151">DMI, asynchronous CDC</text>
</g>
<!-- debug_module&#45;&gt;mgmt_core -->
<g id="edge5" class="edge">
<title>debug_module&#45;&gt;mgmt_core</title>
<path fill="none" stroke="#4b5563" stroke-width="1.2" d="M829.75,-651.98C870.99,-651.98 923.09,-651.98 967.69,-651.98"/>
<polygon fill="#4b5563" stroke="#4b5563" stroke-width="1.2" points="967.77,-654.43 974.77,-651.98 967.77,-649.53 967.77,-654.43"/>
<text text-anchor="middle" x="902.25" y="-657.58" font-family="Arial" font-size="8.00" fill="#374151">halt, resume, abstract commands</text>
</g>
<!-- debug_module&#45;&gt;mgmt_adapter -->
<g id="edge6" class="edge">
<title>debug_module&#45;&gt;mgmt_adapter</title>
<path fill="none" stroke="#4b5563" stroke-width="1.2" stroke-dasharray="5,2" d="M757,-629.24C757,-613.92 757,-593.4 757,-577.51"/>
<polygon fill="#4b5563" stroke="#4b5563" stroke-width="1.2" points="759.45,-577.12 757,-570.12 754.55,-577.12 759.45,-577.12"/>
<text text-anchor="middle" x="795" y="-600.08" font-family="Arial" font-size="8.00" fill="#374151">reset after bridge idle</text>
</g>
<!-- mgmt_adapter&#45;&gt;fabric -->
<g id="edge8" class="edge">
<title>mgmt_adapter&#45;&gt;fabric</title>
<path fill="none" stroke="#4b5563" stroke-width="1.2" d="M734.07,-533.94C714.43,-519.34 685.38,-497.75 659.9,-478.81"/>
<polygon fill="#4b5563" stroke="#4b5563" stroke-width="1.2" points="661.27,-476.77 654.19,-474.57 658.35,-480.71 661.27,-476.77"/>
<text text-anchor="middle" x="702" y="-500.08" font-family="Arial" font-size="8.00" fill="#374151">RIB</text>
</g>
<!-- user_core -->
<g id="node9" class="node">
<title>user_core</title>
<path fill="#ddf2e3" stroke="#4b5563" stroke-width="1.1" d="M680,-574.48C680,-574.48 604,-574.48 604,-574.48 598,-574.48 592,-568.48 592,-562.48 592,-562.48 592,-541.48 592,-541.48 592,-535.48 598,-529.48 604,-529.48 604,-529.48 680,-529.48 680,-529.48 686,-529.48 692,-535.48 692,-541.48 692,-541.48 692,-562.48 692,-562.48 692,-568.48 686,-574.48 680,-574.48"/>
<text text-anchor="middle" x="642" y="-560.48" font-family="Arial" font-size="10.00" fill="#111827">Selected user core</text>
<text text-anchor="middle" x="642" y="-549.48" font-family="Arial" font-size="10.00" fill="#111827">C0&#45;C5, one active</text>
<text text-anchor="middle" x="642" y="-538.48" font-family="Arial" font-size="10.00" fill="#111827">PicoRV32 at C5</text>
</g>
<!-- user_core&#45;&gt;fabric -->
<g id="edge9" class="edge">
<title>user_core&#45;&gt;fabric</title>
<path fill="none" stroke="#4b5563" stroke-width="1.2" d="M635.06,-529.34C630.73,-515.85 625.01,-498.03 619.8,-481.75"/>
<polygon fill="#4b5563" stroke="#4b5563" stroke-width="1.2" points="622.07,-480.81 617.59,-474.89 617.4,-482.31 622.07,-480.81"/>
<text text-anchor="middle" x="634" y="-500.08" font-family="Arial" font-size="8.00" fill="#374151">RIB</text>
</g>
<!-- dma -->
<g id="node10" class="node">
<title>dma</title>
<path fill="#ddf2e3" stroke="#4b5563" stroke-width="1.1" d="M553,-569.98C553,-569.98 435,-569.98 435,-569.98 429,-569.98 423,-563.98 423,-557.98 423,-557.98 423,-545.98 423,-545.98 423,-539.98 429,-533.98 435,-533.98 435,-533.98 553,-533.98 553,-533.98 559,-533.98 565,-539.98 565,-545.98 565,-545.98 565,-557.98 565,-557.98 565,-563.98 559,-569.98 553,-569.98"/>
<text text-anchor="middle" x="494" y="-554.98" font-family="Arial" font-size="10.00" fill="#111827">DMA</text>
<text text-anchor="middle" x="494" y="-543.98" font-family="Arial" font-size="10.00" fill="#111827">RIB master and RIBP target</text>
</g>
<!-- dma&#45;&gt;fabric -->
<g id="edge10" class="edge">
<title>dma&#45;&gt;fabric</title>
<path fill="none" stroke="#4b5563" stroke-width="1.2" d="M511.01,-533.94C525.33,-519.59 546.4,-498.47 565.06,-479.77"/>
<polygon fill="#4b5563" stroke="#4b5563" stroke-width="1.2" points="567.04,-481.25 570.25,-474.57 563.58,-477.79 567.04,-481.25"/>
<text text-anchor="middle" x="553" y="-500.08" font-family="Arial" font-size="8.00" fill="#374151">RIB</text>
</g>
<!-- fault -->
<g id="node12" class="node">
<title>fault</title>
<path fill="#fce7f3" stroke="#4b5563" stroke-width="1.1" d="M1109.5,-455.74C1109.5,-455.74 1000.5,-455.74 1000.5,-455.74 994.5,-455.74 988.5,-449.74 988.5,-443.74 988.5,-443.74 988.5,-431.74 988.5,-431.74 988.5,-425.74 994.5,-419.74 1000.5,-419.74 1000.5,-419.74 1109.5,-419.74 1109.5,-419.74 1115.5,-419.74 1121.5,-425.74 1121.5,-431.74 1121.5,-431.74 1121.5,-443.74 1121.5,-443.74 1121.5,-449.74 1115.5,-455.74 1109.5,-455.74"/>
<text text-anchor="middle" x="1055" y="-440.74" font-family="Arial" font-size="10.00" fill="#111827">Error slave</text>
<text text-anchor="middle" x="1055" y="-429.74" font-family="Arial" font-size="10.00" fill="#111827">access and protocol faults</text>
</g>
<!-- fabric&#45;&gt;fault -->
<g id="edge11" class="edge">
<title>fabric&#45;&gt;fault</title>
<path fill="none" stroke="#4b5563" stroke-width="1.2" d="M728.45,-466.01C793.63,-481.05 860.5,-496.48 860.5,-496.48 860.5,-496.48 913.5,-496.48 913.5,-496.48 913.5,-496.48 975,-474.48 975,-474.48 975,-474.48 991.11,-467.08 1008.88,-458.93"/>
<polygon fill="#4b5563" stroke="#4b5563" stroke-width="1.2" points="728.71,-463.55 721.34,-464.36 727.61,-468.33 728.71,-463.55"/>
<polygon fill="#4b5563" stroke="#4b5563" stroke-width="1.2" points="1010.13,-461.05 1015.47,-455.9 1008.08,-456.59 1010.13,-461.05"/>
<text text-anchor="middle" x="887" y="-500.08" font-family="Arial" font-size="8.00" fill="#374151">invalid / denied</text>
</g>
<!-- sram -->
<g id="node13" class="node">
<title>sram</title>
<path fill="#fff3c9" stroke="#4b5563" stroke-width="1.1" d="M949,-455.74C949,-455.74 851,-455.74 851,-455.74 845,-455.74 839,-449.74 839,-443.74 839,-443.74 839,-431.74 839,-431.74 839,-425.74 845,-419.74 851,-419.74 851,-419.74 949,-419.74 949,-419.74 955,-419.74 961,-425.74 961,-431.74 961,-431.74 961,-443.74 961,-443.74 961,-449.74 955,-455.74 949,-455.74"/>
<text text-anchor="middle" x="900" y="-440.74" font-family="Arial" font-size="10.00" fill="#111827">On&#45;chip SRAM</text>
<text text-anchor="middle" x="900" y="-429.74" font-family="Arial" font-size="10.00" fill="#111827">optional RIB2RAM path</text>
</g>
<!-- fabric&#45;&gt;sram -->
<g id="edge12" class="edge">
<title>fabric&#45;&gt;sram</title>
<path fill="none" stroke="#4b5563" stroke-width="1.2" d="M785.91,-437.74C801.95,-437.74 817.44,-437.74 831.56,-437.74"/>
<polygon fill="#4b5563" stroke="#4b5563" stroke-width="1.2" points="831.81,-440.19 838.81,-437.74 831.81,-435.29 831.81,-440.19"/>
<text text-anchor="middle" x="812.31" y="-443.34" font-family="Arial" font-size="8.00" fill="#374151">RIB</text>
</g>
<!-- ribp_adapter -->
<g id="node14" class="node">
<title>ribp_adapter</title>
<path fill="#e5e7eb" stroke="#4b5563" stroke-width="1.1" d="M764.5,-346C764.5,-346 723.5,-346 723.5,-346 717.5,-346 711.5,-340 711.5,-334 711.5,-334 711.5,-322 711.5,-322 711.5,-316 717.5,-310 723.5,-310 723.5,-310 764.5,-310 764.5,-310 770.5,-310 776.5,-316 776.5,-322 776.5,-322 776.5,-334 776.5,-334 776.5,-340 770.5,-346 764.5,-346"/>
<text text-anchor="middle" x="744" y="-325.5" font-family="Arial" font-size="10.00" fill="#111827">RIB2RIBP</text>
</g>
<!-- fabric&#45;&gt;ribp_adapter -->
<g id="edge13" class="edge">
<title>fabric&#45;&gt;ribp_adapter</title>
<path fill="none" stroke="#4b5563" stroke-width="1.2" d="M651.95,-400.87C673.23,-384.26 697.8,-365.07 716.21,-350.7"/>
<polygon fill="#4b5563" stroke="#4b5563" stroke-width="1.2" points="718.19,-352.26 722.2,-346.02 715.17,-348.4 718.19,-352.26"/>
<text text-anchor="middle" x="698" y="-371.6" font-family="Arial" font-size="8.00" fill="#374151">RIB</text>
</g>
<!-- apb_adapter -->
<g id="node15" class="node">
<title>apb_adapter</title>
<path fill="#e5e7eb" stroke="#4b5563" stroke-width="1.1" d="M599,-346C599,-346 529,-346 529,-346 523,-346 517,-340 517,-334 517,-334 517,-322 517,-322 517,-316 523,-310 529,-310 529,-310 599,-310 599,-310 605,-310 611,-316 611,-322 611,-322 611,-334 611,-334 611,-340 605,-346 599,-346"/>
<text text-anchor="middle" x="564" y="-331" font-family="Arial" font-size="10.00" fill="#111827">RIB2APB</text>
<text text-anchor="middle" x="564" y="-320" font-family="Arial" font-size="10.00" fill="#111827">direct APB bridge</text>
</g>
<!-- fabric&#45;&gt;apb_adapter -->
<g id="edge14" class="edge">
<title>fabric&#45;&gt;apb_adapter</title>
<path fill="none" stroke="#4b5563" stroke-width="1.2" d="M592.01,-400.87C585.82,-384.98 578.71,-366.73 573.2,-352.6"/>
<polygon fill="#4b5563" stroke="#4b5563" stroke-width="1.2" points="575.46,-351.65 570.64,-346.02 570.9,-353.43 575.46,-351.65"/>
<text text-anchor="middle" x="589" y="-371.6" font-family="Arial" font-size="8.00" fill="#374151">RIB</text>
</g>
<!-- sysctrl -->
<g id="node16" class="node">
<title>sysctrl</title>
<path fill="#f9e1e7" stroke="#4b5563" stroke-width="1.1" d="M825.5,-255C825.5,-255 662.5,-255 662.5,-255 656.5,-255 650.5,-249 650.5,-243 650.5,-243 650.5,-222 650.5,-222 650.5,-216 656.5,-210 662.5,-210 662.5,-210 825.5,-210 825.5,-210 831.5,-210 837.5,-216 837.5,-222 837.5,-222 837.5,-243 837.5,-243 837.5,-249 831.5,-255 825.5,-255"/>
<text text-anchor="middle" x="744" y="-241" font-family="Arial" font-size="10.00" fill="#111827">SYSCTRL and CLINT</text>
<text text-anchor="middle" x="744" y="-230" font-family="Arial" font-size="10.00" fill="#111827">PLL, user&#45;core select/reset/bus enable</text>
<text text-anchor="middle" x="744" y="-219" font-family="Arial" font-size="10.00" fill="#111827">fault and performance control</text>
</g>
<!-- ribp_adapter&#45;&gt;sysctrl -->
<g id="edge15" class="edge">
<title>ribp_adapter&#45;&gt;sysctrl</title>
<path fill="none" stroke="#4b5563" stroke-width="1.2" d="M744,-309.85C744,-296.62 744,-278.02 744,-262.49"/>
<polygon fill="#4b5563" stroke="#4b5563" stroke-width="1.2" points="746.45,-262.15 744,-255.15 741.55,-262.15 746.45,-262.15"/>
<text text-anchor="middle" x="753.5" y="-280.6" font-family="Arial" font-size="8.00" fill="#374151">RIBP</text>
</g>
<!-- ribp_targets -->
<g id="node17" class="node">
<title>ribp_targets</title>
<path fill="#f9e1e7" stroke="#4b5563" stroke-width="1.1" d="M1066,-255C1066,-255 876,-255 876,-255 870,-255 864,-249 864,-243 864,-243 864,-222 864,-222 864,-216 870,-210 876,-210 876,-210 1066,-210 1066,-210 1072,-210 1078,-216 1078,-222 1078,-222 1078,-243 1078,-243 1078,-249 1072,-255 1066,-255"/>
<text text-anchor="middle" x="971" y="-241" font-family="Arial" font-size="10.00" fill="#111827">RIBP target wrapper</text>
<text text-anchor="middle" x="971" y="-230" font-family="Arial" font-size="10.00" fill="#111827">XPI/Flash, SDRAM, PSRAM, SPI&#45;SD, DVP</text>
<text text-anchor="middle" x="971" y="-219" font-family="Arial" font-size="10.00" fill="#111827">GPIO, UART0, timers, I2C, I2S and 1&#45;Wire</text>
</g>
<!-- ribp_adapter&#45;&gt;ribp_targets -->
<g id="edge16" class="edge">
<title>ribp_adapter&#45;&gt;ribp_targets</title>
<path fill="none" stroke="#4b5563" stroke-width="1.2" d="M776.52,-313.6C811.74,-299.1 868.65,-275.66 911.84,-257.87"/>
<polygon fill="#4b5563" stroke="#4b5563" stroke-width="1.2" points="912.83,-260.11 918.37,-255.18 910.97,-255.58 912.83,-260.11"/>
<text text-anchor="middle" x="866.5" y="-280.6" font-family="Arial" font-size="8.00" fill="#374151">RIBP</text>
</g>
<!-- apb_targets -->
<g id="node18" class="node">
<title>apb_targets</title>
<path fill="#e6f4ea" stroke="#4b5563" stroke-width="1.1" d="M611.5,-255C611.5,-255 420.5,-255 420.5,-255 414.5,-255 408.5,-249 408.5,-243 408.5,-243 408.5,-222 408.5,-222 408.5,-216 414.5,-210 420.5,-210 420.5,-210 611.5,-210 611.5,-210 617.5,-210 623.5,-216 623.5,-222 623.5,-222 623.5,-243 623.5,-243 623.5,-249 617.5,-255 611.5,-255"/>
<text text-anchor="middle" x="516" y="-241" font-family="Arial" font-size="10.00" fill="#111827">APB target wrapper</text>
<text text-anchor="middle" x="516" y="-230" font-family="Arial" font-size="10.00" fill="#111827">Archinfo, RNG, UART1, PWM, PS/2, RTC</text>
<text text-anchor="middle" x="516" y="-219" font-family="Arial" font-size="10.00" fill="#111827">watchdog, CRC, advanced timer and user IP</text>
</g>
<!-- apb_adapter&#45;&gt;apb_targets -->
<g id="edge17" class="edge">
<title>apb_adapter&#45;&gt;apb_targets</title>
<path fill="none" stroke="#4b5563" stroke-width="1.2" d="M555.2,-309.85C548.28,-296.38 538.51,-277.34 530.45,-261.65"/>
<polygon fill="#4b5563" stroke="#4b5563" stroke-width="1.2" points="532.49,-260.26 527.11,-255.15 528.13,-262.5 532.49,-260.26"/>
<text text-anchor="middle" x="550" y="-280.6" font-family="Arial" font-size="8.00" fill="#374151">APB</text>
</g>
<!-- ribp_targets&#45;&gt;ext_io -->
<g id="edge20" class="edge">
<title>ribp_targets&#45;&gt;ext_io</title>
<path fill="none" stroke="#4b5563" stroke-width="1.2" d="M963.24,-203.09C951.61,-160.49 931,-85 931,-85 931,-85 922.54,-67.66 914.6,-51.39"/>
<polygon fill="#4b5563" stroke="#4b5563" stroke-width="1.2" points="960.89,-203.78 965.1,-209.88 965.62,-202.49 960.89,-203.78"/>
<polygon fill="#4b5563" stroke="#4b5563" stroke-width="1.2" points="916.76,-50.23 911.49,-45.01 912.36,-52.38 916.76,-50.23"/>
<text text-anchor="middle" x="979" y="-135.1" font-family="Arial" font-size="8.00" fill="#374151">device interfaces</text>
</g>
<!-- gpio_bridge -->
<g id="node19" class="node">
<title>gpio_bridge</title>
<path fill="#e5e7eb" stroke="#4b5563" stroke-width="1.1" d="M905,-155C905,-155 757,-155 757,-155 751,-155 745,-149 745,-143 745,-143 745,-131 745,-131 745,-125 751,-119 757,-119 757,-119 905,-119 905,-119 911,-119 917,-125 917,-131 917,-131 917,-143 917,-143 917,-149 911,-155 905,-155"/>
<text text-anchor="middle" x="831" y="-140" font-family="Arial" font-size="10.00" fill="#111827">GPIO pad bridge</text>
<text text-anchor="middle" x="831" y="-129" font-family="Arial" font-size="10.00" fill="#111827">software, alternate and user modes</text>
</g>
<!-- ribp_targets&#45;&gt;gpio_bridge -->
<g id="edge18" class="edge">
<title>ribp_targets&#45;&gt;gpio_bridge</title>
<path fill="none" stroke="#4b5563" stroke-width="1.2" d="M918.58,-209.9C891.06,-198.56 863,-187 863,-187 863,-187 854.45,-173.9 846.19,-161.25"/>
<polygon fill="#4b5563" stroke="#4b5563" stroke-width="1.2" points="848.07,-159.66 842.19,-155.14 843.97,-162.34 848.07,-159.66"/>
<text text-anchor="middle" x="907" y="-180.6" font-family="Arial" font-size="8.00" fill="#374151">GPIO alternate functions</text>
</g>
<!-- apb_targets&#45;&gt;gpio_bridge -->
<g id="edge19" class="edge">
<title>apb_targets&#45;&gt;gpio_bridge</title>
<path fill="none" stroke="#4b5563" stroke-width="1.2" d="M588.66,-209.93C642.48,-193.96 715.14,-172.39 766.82,-157.05"/>
<polygon fill="#4b5563" stroke="#4b5563" stroke-width="1.2" points="767.64,-159.36 773.65,-155.02 766.24,-154.67 767.64,-159.36"/>
<text text-anchor="middle" x="710" y="-180.6" font-family="Arial" font-size="8.00" fill="#374151">user_gpio</text>
</g>
<!-- gpio_bridge&#45;&gt;ext_io -->
<g id="edge21" class="edge">
<title>gpio_bridge&#45;&gt;ext_io</title>
<path fill="none" stroke="#4b5563" stroke-width="1.2" d="M845.43,-112.81C856.49,-95.04 871.79,-70.44 883.54,-51.56"/>
<polygon fill="#4b5563" stroke="#4b5563" stroke-width="1.2" points="843.25,-111.68 841.63,-118.91 847.41,-114.26 843.25,-111.68"/>
<polygon fill="#4b5563" stroke="#4b5563" stroke-width="1.2" points="885.76,-52.63 887.38,-45.39 881.6,-50.04 885.76,-52.63"/>
<text text-anchor="middle" x="892" y="-70.6" font-family="Arial" font-size="8.00" fill="#374151">pad control</text>
</g>
<!-- irq -->
<g id="node20" class="node">
<title>irq</title>
<path fill="#fce7f3" stroke="#4b5563" stroke-width="1.1" d="M659,-155C659,-155 453,-155 453,-155 447,-155 441,-149 441,-143 441,-143 441,-131 441,-131 441,-125 447,-119 453,-119 453,-119 659,-119 659,-119 665,-119 671,-125 671,-131 671,-131 671,-143 671,-143 671,-149 665,-155 659,-155"/>
<text text-anchor="middle" x="556" y="-140" font-family="Arial" font-size="10.00" fill="#111827">Interrupt aggregation</text>
<text text-anchor="middle" x="556" y="-129" font-family="Arial" font-size="10.00" fill="#111827">RIBP and APB target IRQs to management core</text>
</g>
</g>
</svg>
